<svg width="248" height="189" viewBox="0 0 248 189" fill="none" xmlns="http://www.w3.org/2000/svg">
    <path d="M247.187 64.942C247.187 132.946 192.058 188.074 124.054 188.074C56.0502 188.074 0.922058 132.946 0.922058 64.9419L0.922058 0.913223L247.187 0.913223L247.187 64.942Z" fill="#6C1EA3"/>
    <path d="M122.228 87.3835C123.268 87.3835 124.22 87.2155 125.084 86.8795C125.948 86.5275 126.684 86.0475 127.292 85.4395C127.916 84.8315 128.396 84.1115 128.732 83.2795C129.068 82.4475 129.236 81.5435 129.236 80.5675C129.236 79.5115 129.068 78.5675 128.732 77.7355C128.412 76.8875 127.948 76.1755 127.34 75.5995C126.748 75.0235 126.028 74.5835 125.18 74.2795C124.348 73.9595 123.428 73.7995 122.42 73.7995C121.38 73.7995 120.436 73.9755 119.588 74.3275C118.756 74.6795 118.044 75.1595 117.452 75.7675C116.86 76.3755 116.404 77.0875 116.084 77.9035C115.764 78.7195 115.604 79.5835 115.604 80.4955C115.604 81.5195 115.748 82.4555 116.036 83.3035C116.324 84.1515 116.748 84.8795 117.308 85.4875C117.868 86.0795 118.556 86.5435 119.372 86.8795C120.204 87.2155 121.156 87.3835 122.228 87.3835ZM120.332 69.4315C120.076 69.7515 119.828 70.0555 119.588 70.3435C119.364 70.6315 119.14 70.9195 118.916 71.2075C119.652 70.7915 120.46 70.4635 121.34 70.2235C122.22 69.9835 123.164 69.8635 124.172 69.8635C125.516 69.8635 126.804 70.0875 128.036 70.5355C129.268 70.9675 130.348 71.6235 131.276 72.5035C132.22 73.3675 132.972 74.4475 133.532 75.7435C134.092 77.0235 134.372 78.5035 134.372 80.1835C134.372 81.7835 134.076 83.2795 133.484 84.6715C132.908 86.0635 132.092 87.2795 131.036 88.3195C129.98 89.3435 128.708 90.1595 127.22 90.7675C125.748 91.3595 124.116 91.6555 122.324 91.6555C120.532 91.6555 118.916 91.3675 117.476 90.7915C116.036 90.2155 114.804 89.4075 113.78 88.3675C112.772 87.3115 111.996 86.0475 111.452 84.5755C110.908 83.1035 110.636 81.4635 110.636 79.6555C110.636 78.0875 110.972 76.4475 111.644 74.7355C112.316 73.0235 113.356 71.2235 114.764 69.3355L123.26 57.9355C123.516 57.5995 123.884 57.3115 124.364 57.0715C124.86 56.8315 125.412 56.7115 126.02 56.7115H130.58L120.332 69.4315Z" fill="white"/>
    <path d="M86.2215 136.468C86.3655 136.468 86.4895 136.524 86.5935 136.636L87.6015 137.74C86.8975 138.572 86.0375 139.216 85.0215 139.672C84.0135 140.128 82.7975 140.356 81.3735 140.356C80.1255 140.356 78.9935 140.14 77.9775 139.708C76.9695 139.276 76.1055 138.672 75.3855 137.896C74.6735 137.12 74.1215 136.192 73.7295 135.112C73.3375 134.032 73.1415 132.844 73.1415 131.548C73.1415 130.252 73.3455 129.064 73.7535 127.984C74.1695 126.904 74.7495 125.976 75.4935 125.2C76.2375 124.424 77.1255 123.82 78.1575 123.388C79.1975 122.956 80.3455 122.74 81.6015 122.74C82.8255 122.74 83.9135 122.94 84.8655 123.34C85.8175 123.74 86.6455 124.272 87.3495 124.936L86.5095 126.124C86.4535 126.212 86.3815 126.284 86.2935 126.34C86.2135 126.396 86.1055 126.424 85.9695 126.424C85.8175 126.424 85.6375 126.348 85.4295 126.196C85.2295 126.044 84.9615 125.876 84.6255 125.692C84.2975 125.5 83.8895 125.328 83.4015 125.176C82.9135 125.024 82.3055 124.948 81.5775 124.948C80.7215 124.948 79.9375 125.1 79.2255 125.404C78.5135 125.7 77.8975 126.132 77.3775 126.7C76.8655 127.26 76.4655 127.952 76.1775 128.776C75.8975 129.592 75.7575 130.516 75.7575 131.548C75.7575 132.596 75.9055 133.528 76.2015 134.344C76.4975 135.16 76.9055 135.852 77.4255 136.42C77.9455 136.988 78.5575 137.42 79.2615 137.716C79.9655 138.012 80.7255 138.16 81.5415 138.16C82.0375 138.16 82.4815 138.132 82.8735 138.076C83.2735 138.012 83.6375 137.92 83.9655 137.8C84.3015 137.68 84.6175 137.528 84.9135 137.344C85.2095 137.152 85.5015 136.924 85.7895 136.66C85.8535 136.604 85.9215 136.56 85.9935 136.528C86.0655 136.488 86.1415 136.468 86.2215 136.468ZM94.6515 127.78C95.5475 127.78 96.3555 127.928 97.0755 128.224C97.8035 128.512 98.4195 128.932 98.9235 129.484C99.4355 130.028 99.8275 130.688 100.1 131.464C100.372 132.232 100.508 133.096 100.508 134.056C100.508 135.016 100.372 135.884 100.1 136.66C99.8275 137.436 99.4355 138.096 98.9235 138.64C98.4195 139.184 97.8035 139.604 97.0755 139.9C96.3555 140.188 95.5475 140.332 94.6515 140.332C93.7475 140.332 92.9315 140.188 92.2035 139.9C91.4835 139.604 90.8675 139.184 90.3555 138.64C89.8435 138.096 89.4475 137.436 89.1675 136.66C88.8955 135.884 88.7595 135.016 88.7595 134.056C88.7595 133.096 88.8955 132.232 89.1675 131.464C89.4475 130.688 89.8435 130.028 90.3555 129.484C90.8675 128.932 91.4835 128.512 92.2035 128.224C92.9315 127.928 93.7475 127.78 94.6515 127.78ZM94.6515 138.508C95.8035 138.508 96.6635 138.12 97.2315 137.344C97.7995 136.568 98.0835 135.476 98.0835 134.068C98.0835 132.66 97.7995 131.568 97.2315 130.792C96.6635 130.008 95.8035 129.616 94.6515 129.616C93.4835 129.616 92.6115 130.008 92.0355 130.792C91.4675 131.568 91.1835 132.66 91.1835 134.068C91.1835 135.476 91.4675 136.568 92.0355 137.344C92.6115 138.12 93.4835 138.508 94.6515 138.508ZM113.26 127.972V140.164H111.856C111.536 140.164 111.328 140.008 111.232 139.696L111.064 138.472C110.8 138.752 110.524 139.008 110.236 139.24C109.948 139.472 109.64 139.672 109.312 139.84C108.984 140 108.636 140.124 108.268 140.212C107.9 140.308 107.504 140.356 107.08 140.356C106.408 140.356 105.816 140.244 105.304 140.02C104.8 139.796 104.376 139.484 104.032 139.084C103.688 138.676 103.428 138.188 103.252 137.62C103.076 137.052 102.988 136.424 102.988 135.736V127.972H105.34V135.736C105.34 136.608 105.54 137.288 105.94 137.776C106.34 138.256 106.952 138.496 107.776 138.496C108.376 138.496 108.936 138.356 109.456 138.076C109.976 137.788 110.464 137.396 110.92 136.9V127.972H113.26ZM118.722 129.664C118.986 129.384 119.262 129.128 119.55 128.896C119.838 128.664 120.142 128.468 120.462 128.308C120.79 128.14 121.138 128.012 121.506 127.924C121.882 127.828 122.282 127.78 122.706 127.78C123.378 127.78 123.966 127.892 124.47 128.116C124.982 128.34 125.41 128.656 125.754 129.064C126.098 129.464 126.358 129.948 126.534 130.516C126.71 131.084 126.798 131.712 126.798 132.4V140.164H124.446V132.4C124.446 131.528 124.246 130.852 123.846 130.372C123.446 129.884 122.834 129.64 122.01 129.64C121.41 129.64 120.846 129.784 120.318 130.072C119.798 130.352 119.314 130.736 118.866 131.224V140.164H116.526V127.972H117.93C118.258 127.972 118.462 128.128 118.542 128.44L118.722 129.664ZM133.607 140.356C132.623 140.356 131.863 140.08 131.327 139.528C130.799 138.976 130.535 138.188 130.535 137.164V129.868H129.119C128.983 129.868 128.867 129.828 128.771 129.748C128.683 129.66 128.639 129.532 128.639 129.364V128.416L130.619 128.14L131.147 124.504C131.179 124.368 131.239 124.264 131.327 124.192C131.423 124.112 131.543 124.072 131.687 124.072H132.875V128.164H136.331V129.868H132.875V137.008C132.875 137.488 132.991 137.848 133.223 138.088C133.463 138.32 133.767 138.436 134.135 138.436C134.351 138.436 134.535 138.408 134.687 138.352C134.847 138.296 134.983 138.236 135.095 138.172C135.207 138.1 135.303 138.036 135.383 137.98C135.463 137.924 135.535 137.896 135.599 137.896C135.679 137.896 135.739 137.916 135.779 137.956C135.827 137.988 135.875 138.044 135.923 138.124L136.619 139.252C136.235 139.604 135.779 139.876 135.251 140.068C134.723 140.26 134.175 140.356 133.607 140.356ZM140.695 130.312C141.087 129.512 141.559 128.884 142.111 128.428C142.663 127.972 143.327 127.744 144.103 127.744C144.367 127.744 144.615 127.776 144.847 127.84C145.087 127.896 145.295 127.984 145.471 128.104L145.315 129.868C145.259 130.084 145.127 130.192 144.919 130.192C144.807 130.192 144.639 130.172 144.415 130.132C144.191 130.084 143.951 130.06 143.695 130.06C143.319 130.06 142.987 130.116 142.699 130.228C142.411 130.332 142.151 130.492 141.919 130.708C141.695 130.916 141.495 131.176 141.319 131.488C141.143 131.792 140.979 132.14 140.827 132.532V140.164H138.487V127.972H139.831C140.087 127.972 140.259 128.02 140.347 128.116C140.443 128.204 140.511 128.364 140.551 128.596L140.695 130.312ZM149.724 127.972V140.164H147.384V127.972H149.724ZM150.168 124.204C150.168 124.42 150.124 124.628 150.036 124.828C149.948 125.02 149.828 125.192 149.676 125.344C149.532 125.488 149.36 125.604 149.16 125.692C148.96 125.772 148.752 125.812 148.536 125.812C148.32 125.812 148.116 125.772 147.924 125.692C147.732 125.604 147.56 125.488 147.408 125.344C147.264 125.192 147.148 125.02 147.06 124.828C146.98 124.628 146.94 124.42 146.94 124.204C146.94 123.98 146.98 123.772 147.06 123.58C147.148 123.38 147.264 123.208 147.408 123.064C147.56 122.912 147.732 122.796 147.924 122.716C148.116 122.628 148.32 122.584 148.536 122.584C148.752 122.584 148.96 122.628 149.16 122.716C149.36 122.796 149.532 122.912 149.676 123.064C149.828 123.208 149.948 123.38 150.036 123.58C150.124 123.772 150.168 123.98 150.168 124.204ZM161.188 132.712C161.188 132.248 161.12 131.82 160.984 131.428C160.856 131.036 160.664 130.696 160.408 130.408C160.152 130.12 159.84 129.896 159.472 129.736C159.104 129.576 158.68 129.496 158.2 129.496C157.216 129.496 156.44 129.78 155.872 130.348C155.312 130.916 154.956 131.704 154.804 132.712H161.188ZM163.12 138.424C162.832 138.76 162.5 139.052 162.124 139.3C161.748 139.54 161.348 139.736 160.924 139.888C160.5 140.04 160.06 140.152 159.604 140.224C159.156 140.296 158.712 140.332 158.272 140.332C157.432 140.332 156.652 140.192 155.932 139.912C155.22 139.624 154.6 139.208 154.072 138.664C153.552 138.112 153.144 137.432 152.848 136.624C152.56 135.808 152.416 134.872 152.416 133.816C152.416 132.968 152.548 132.18 152.812 131.452C153.076 130.716 153.452 130.076 153.94 129.532C154.436 128.988 155.04 128.56 155.752 128.248C156.464 127.936 157.264 127.78 158.152 127.78C158.896 127.78 159.58 127.904 160.204 128.152C160.836 128.392 161.38 128.744 161.836 129.208C162.292 129.672 162.648 130.244 162.904 130.924C163.168 131.604 163.3 132.38 163.3 133.252C163.3 133.612 163.26 133.856 163.18 133.984C163.1 134.104 162.952 134.164 162.736 134.164H154.744C154.768 134.892 154.872 135.528 155.056 136.072C155.24 136.608 155.492 137.056 155.812 137.416C156.14 137.776 156.528 138.044 156.976 138.22C157.424 138.396 157.924 138.484 158.476 138.484C158.996 138.484 159.444 138.424 159.82 138.304C160.204 138.184 160.532 138.056 160.804 137.92C161.084 137.776 161.316 137.644 161.5 137.524C161.692 137.404 161.86 137.344 162.004 137.344C162.196 137.344 162.344 137.416 162.448 137.56L163.12 138.424ZM173.003 130.072C172.939 130.176 172.871 130.252 172.799 130.3C172.727 130.34 172.635 130.36 172.523 130.36C172.395 130.36 172.251 130.316 172.091 130.228C171.939 130.14 171.751 130.044 171.527 129.94C171.311 129.836 171.055 129.74 170.759 129.652C170.463 129.564 170.111 129.52 169.703 129.52C169.367 129.52 169.059 129.564 168.779 129.652C168.507 129.732 168.275 129.848 168.083 130C167.891 130.144 167.743 130.32 167.639 130.528C167.535 130.728 167.483 130.944 167.483 131.176C167.483 131.48 167.571 131.732 167.747 131.932C167.931 132.132 168.167 132.304 168.455 132.448C168.751 132.592 169.083 132.724 169.451 132.844C169.827 132.956 170.207 133.076 170.591 133.204C170.983 133.332 171.363 133.48 171.731 133.648C172.107 133.808 172.439 134.012 172.727 134.26C173.023 134.5 173.259 134.792 173.435 135.136C173.619 135.48 173.711 135.9 173.711 136.396C173.711 136.964 173.607 137.492 173.399 137.98C173.199 138.46 172.899 138.876 172.499 139.228C172.107 139.58 171.619 139.856 171.035 140.056C170.451 140.256 169.783 140.356 169.031 140.356C168.191 140.356 167.415 140.216 166.703 139.936C165.991 139.656 165.395 139.3 164.915 138.868L165.467 137.968C165.531 137.856 165.611 137.772 165.707 137.716C165.803 137.652 165.931 137.62 166.091 137.62C166.243 137.62 166.399 137.676 166.559 137.788C166.719 137.9 166.911 138.024 167.135 138.16C167.359 138.288 167.631 138.408 167.951 138.52C168.271 138.624 168.671 138.676 169.151 138.676C169.551 138.676 169.899 138.628 170.195 138.532C170.491 138.428 170.735 138.292 170.927 138.124C171.127 137.948 171.275 137.748 171.371 137.524C171.467 137.3 171.515 137.064 171.515 136.816C171.515 136.496 171.423 136.232 171.239 136.024C171.063 135.808 170.827 135.624 170.531 135.472C170.243 135.32 169.911 135.188 169.535 135.076C169.159 134.964 168.775 134.844 168.383 134.716C167.991 134.588 167.607 134.44 167.231 134.272C166.855 134.104 166.519 133.892 166.223 133.636C165.935 133.38 165.699 133.068 165.515 132.7C165.339 132.332 165.251 131.884 165.251 131.356C165.251 130.884 165.347 130.432 165.539 130C165.739 129.568 166.023 129.188 166.391 128.86C166.767 128.532 167.227 128.272 167.771 128.08C168.323 127.88 168.951 127.78 169.655 127.78C170.463 127.78 171.191 127.908 171.839 128.164C172.495 128.42 173.055 128.772 173.519 129.22L173.003 130.072Z" fill="white"/>
</svg>
