<svg width="247" height="188" viewBox="0 0 247 188" fill="none" xmlns="http://www.w3.org/2000/svg">
    <path d="M0.708008 123.767C0.708008 55.7629 55.8362 0.634766 123.84 0.634766V0.634766C191.844 0.634766 246.972 55.763 246.972 123.767V187.796L0.708008 187.796L0.708008 123.767Z" fill="#6C1EA3"/>
    <path d="M63.4711 69.2002C64.3031 69.0242 65.0951 68.8962 65.8471 68.8162C66.6151 68.7362 67.3511 68.6962 68.0551 68.6962C69.8631 68.6962 71.4551 68.9682 72.8311 69.5122C74.2231 70.0402 75.3831 70.7762 76.3111 71.7202C77.2551 72.6642 77.9591 73.7762 78.4231 75.0562C78.9031 76.3202 79.1431 77.6962 79.1431 79.1842C79.1431 81.0242 78.8231 82.6962 78.1831 84.2002C77.5431 85.7042 76.6551 86.9922 75.5191 88.0642C74.3831 89.1202 73.0391 89.9362 71.4871 90.5122C69.9511 91.0882 68.2871 91.3762 66.4951 91.3762C65.4391 91.3762 64.4311 91.2722 63.4711 91.0642C62.5271 90.8562 61.6391 90.5762 60.8071 90.2242C59.9751 89.8562 59.2071 89.4402 58.5031 88.9762C57.7991 88.4962 57.1671 88.0002 56.6071 87.4882L58.1911 85.2802C58.5271 84.8002 58.9751 84.5602 59.5351 84.5602C59.8871 84.5602 60.2711 84.6882 60.6871 84.9442C61.1031 85.2002 61.5831 85.4802 62.1271 85.7842C62.6871 86.0722 63.3431 86.3442 64.0951 86.6002C64.8471 86.8562 65.7431 86.9842 66.7831 86.9842C67.9191 86.9842 68.9351 86.8002 69.8311 86.4322C70.7271 86.0642 71.4791 85.5522 72.0871 84.8962C72.7111 84.2242 73.1831 83.4242 73.5031 82.4962C73.8231 81.5682 73.9831 80.5522 73.9831 79.4482C73.9831 78.4402 73.8311 77.5362 73.5271 76.7362C73.2391 75.9362 72.7991 75.2562 72.2071 74.6962C71.6311 74.1362 70.9031 73.7122 70.0231 73.4242C69.1431 73.1202 68.1271 72.9682 66.9751 72.9682C66.1271 72.9682 65.2551 73.0402 64.3591 73.1842C63.4791 73.3282 62.5831 73.5522 61.6711 73.8562L58.4551 72.9442L61.2871 56.4322H78.0151V58.6642C78.0151 59.4002 77.7831 60.0002 77.3191 60.4642C76.8551 60.9282 76.0791 61.1602 74.9911 61.1602H64.8631L63.4711 69.2002ZM108.595 73.7122C108.595 76.7362 108.267 79.3522 107.611 81.5602C106.971 83.7682 106.083 85.6002 104.947 87.0562C103.811 88.5122 102.475 89.5922 100.939 90.2962C99.4029 91.0002 97.7469 91.3522 95.9709 91.3522C94.1949 91.3522 92.5389 91.0002 91.0029 90.2962C89.4669 89.5922 88.1309 88.5122 86.9949 87.0562C85.8749 85.6002 84.9949 83.7682 84.3549 81.5602C83.7149 79.3522 83.3949 76.7362 83.3949 73.7122C83.3949 70.6882 83.7149 68.0722 84.3549 65.8642C84.9949 63.6402 85.8749 61.8082 86.9949 60.3682C88.1309 58.9122 89.4669 57.8322 91.0029 57.1282C92.5389 56.4082 94.1949 56.0482 95.9709 56.0482C97.7469 56.0482 99.4029 56.4082 100.939 57.1282C102.475 57.8322 103.811 58.9122 104.947 60.3682C106.083 61.8082 106.971 63.6402 107.611 65.8642C108.267 68.0722 108.595 70.6882 108.595 73.7122ZM103.267 73.7122C103.267 71.1522 103.059 69.0242 102.643 67.3282C102.243 65.6162 101.707 64.2482 101.035 63.2242C100.363 62.2002 99.5869 61.4722 98.7069 61.0402C97.8269 60.6082 96.9149 60.3922 95.9709 60.3922C95.0109 60.3922 94.0909 60.6082 93.2109 61.0402C92.3469 61.4722 91.5789 62.2002 90.9069 63.2242C90.2349 64.2482 89.6989 65.6162 89.2989 67.3282C88.8989 69.0242 88.6989 71.1522 88.6989 73.7122C88.6989 76.2722 88.8989 78.4082 89.2989 80.1202C89.6989 81.8162 90.2349 83.1762 90.9069 84.2002C91.5789 85.2242 92.3469 85.9522 93.2109 86.3842C94.0909 86.8162 95.0109 87.0322 95.9709 87.0322C96.9149 87.0322 97.8269 86.8162 98.7069 86.3842C99.5869 85.9522 100.363 85.2242 101.035 84.2002C101.707 83.1762 102.243 81.8162 102.643 80.1202C103.059 78.4082 103.267 76.2722 103.267 73.7122ZM136.439 73.7122C136.439 76.7362 136.111 79.3522 135.455 81.5602C134.815 83.7682 133.927 85.6002 132.791 87.0562C131.655 88.5122 130.319 89.5922 128.783 90.2962C127.247 91.0002 125.591 91.3522 123.815 91.3522C122.039 91.3522 120.383 91.0002 118.847 90.2962C117.311 89.5922 115.975 88.5122 114.839 87.0562C113.719 85.6002 112.839 83.7682 112.199 81.5602C111.559 79.3522 111.239 76.7362 111.239 73.7122C111.239 70.6882 111.559 68.0722 112.199 65.8642C112.839 63.6402 113.719 61.8082 114.839 60.3682C115.975 58.9122 117.311 57.8322 118.847 57.1282C120.383 56.4082 122.039 56.0482 123.815 56.0482C125.591 56.0482 127.247 56.4082 128.783 57.1282C130.319 57.8322 131.655 58.9122 132.791 60.3682C133.927 61.8082 134.815 63.6402 135.455 65.8642C136.111 68.0722 136.439 70.6882 136.439 73.7122ZM131.111 73.7122C131.111 71.1522 130.903 69.0242 130.487 67.3282C130.087 65.6162 129.551 64.2482 128.879 63.2242C128.207 62.2002 127.431 61.4722 126.551 61.0402C125.671 60.6082 124.759 60.3922 123.815 60.3922C122.855 60.3922 121.935 60.6082 121.055 61.0402C120.191 61.4722 119.423 62.2002 118.751 63.2242C118.079 64.2482 117.543 65.6162 117.143 67.3282C116.743 69.0242 116.543 71.1522 116.543 73.7122C116.543 76.2722 116.743 78.4082 117.143 80.1202C117.543 81.8162 118.079 83.1762 118.751 84.2002C119.423 85.2242 120.191 85.9522 121.055 86.3842C121.935 86.8162 122.855 87.0322 123.815 87.0322C124.759 87.0322 125.671 86.8162 126.551 86.3842C127.431 85.9522 128.207 85.2242 128.879 84.2002C129.551 83.1762 130.087 81.8162 130.487 80.1202C130.903 78.4082 131.111 76.2722 131.111 73.7122ZM164.282 73.7122C164.282 76.7362 163.954 79.3522 163.298 81.5602C162.658 83.7682 161.77 85.6002 160.634 87.0562C159.498 88.5122 158.162 89.5922 156.626 90.2962C155.09 91.0002 153.434 91.3522 151.658 91.3522C149.882 91.3522 148.226 91.0002 146.69 90.2962C145.154 89.5922 143.818 88.5122 142.682 87.0562C141.562 85.6002 140.682 83.7682 140.042 81.5602C139.402 79.3522 139.082 76.7362 139.082 73.7122C139.082 70.6882 139.402 68.0722 140.042 65.8642C140.682 63.6402 141.562 61.8082 142.682 60.3682C143.818 58.9122 145.154 57.8322 146.69 57.1282C148.226 56.4082 149.882 56.0482 151.658 56.0482C153.434 56.0482 155.09 56.4082 156.626 57.1282C158.162 57.8322 159.498 58.9122 160.634 60.3682C161.77 61.8082 162.658 63.6402 163.298 65.8642C163.954 68.0722 164.282 70.6882 164.282 73.7122ZM158.954 73.7122C158.954 71.1522 158.746 69.0242 158.33 67.3282C157.93 65.6162 157.394 64.2482 156.722 63.2242C156.05 62.2002 155.274 61.4722 154.394 61.0402C153.514 60.6082 152.602 60.3922 151.658 60.3922C150.698 60.3922 149.778 60.6082 148.898 61.0402C148.034 61.4722 147.266 62.2002 146.594 63.2242C145.922 64.2482 145.386 65.6162 144.986 67.3282C144.586 69.0242 144.386 71.1522 144.386 73.7122C144.386 76.2722 144.586 78.4082 144.986 80.1202C145.386 81.8162 145.922 83.1762 146.594 84.2002C147.266 85.2242 148.034 85.9522 148.898 86.3842C149.778 86.8162 150.698 87.0322 151.658 87.0322C152.602 87.0322 153.514 86.8162 154.394 86.3842C155.274 85.9522 156.05 85.2242 156.722 84.2002C157.394 83.1762 157.93 81.8162 158.33 80.1202C158.746 78.4082 158.954 76.2722 158.954 73.7122ZM191.142 76.8322H181.614V86.8882H177.414V76.8322H167.934V72.9442H177.414V62.9122H181.614V72.9442H191.142V76.8322Z" fill="white"/>
    <path d="M87.9892 125.463C87.9092 125.599 87.8252 125.699 87.7372 125.763C87.6492 125.827 87.5372 125.859 87.4012 125.859C87.2572 125.859 87.0932 125.795 86.9092 125.667C86.7252 125.531 86.4932 125.383 86.2132 125.223C85.9412 125.055 85.6132 124.907 85.2292 124.779C84.8452 124.643 84.3852 124.575 83.8492 124.575C83.3452 124.575 82.9012 124.643 82.5172 124.779C82.1412 124.907 81.8252 125.087 81.5692 125.319C81.3132 125.543 81.1172 125.811 80.9812 126.123C80.8532 126.427 80.7892 126.759 80.7892 127.119C80.7892 127.583 80.9052 127.967 81.1372 128.271C81.3772 128.575 81.6892 128.835 82.0732 129.051C82.4572 129.267 82.8932 129.455 83.3812 129.615C83.8692 129.775 84.3692 129.943 84.8812 130.119C85.3932 130.287 85.8932 130.483 86.3812 130.707C86.8692 130.931 87.3052 131.215 87.6892 131.559C88.0732 131.895 88.3812 132.311 88.6132 132.807C88.8532 133.295 88.9732 133.895 88.9732 134.607C88.9732 135.367 88.8412 136.079 88.5772 136.743C88.3212 137.407 87.9452 137.987 87.4492 138.483C86.9532 138.979 86.3412 139.371 85.6132 139.659C84.8932 139.939 84.0732 140.079 83.1532 140.079C82.6012 140.079 82.0652 140.023 81.5452 139.911C81.0252 139.807 80.5332 139.659 80.0692 139.467C79.6052 139.267 79.1692 139.031 78.7612 138.759C78.3612 138.479 78.0012 138.167 77.6812 137.823L78.4132 136.599C78.4852 136.503 78.5692 136.423 78.6652 136.359C78.7692 136.295 78.8852 136.263 79.0132 136.263C79.1812 136.263 79.3732 136.351 79.5892 136.527C79.8132 136.703 80.0852 136.899 80.4052 137.115C80.7332 137.323 81.1212 137.515 81.5692 137.691C82.0252 137.867 82.5772 137.955 83.2252 137.955C83.7532 137.955 84.2252 137.887 84.6412 137.751C85.0572 137.607 85.4052 137.407 85.6852 137.151C85.9732 136.887 86.1932 136.571 86.3452 136.203C86.4972 135.835 86.5732 135.427 86.5732 134.979C86.5732 134.475 86.4572 134.063 86.2252 133.743C85.9932 133.423 85.6852 133.155 85.3012 132.939C84.9172 132.723 84.4812 132.539 83.9932 132.387C83.5052 132.235 83.0052 132.079 82.4932 131.919C81.9812 131.751 81.4812 131.559 80.9932 131.343C80.5052 131.127 80.0692 130.847 79.6852 130.503C79.3012 130.151 78.9932 129.715 78.7612 129.195C78.5292 128.667 78.4132 128.019 78.4132 127.251C78.4132 126.635 78.5332 126.039 78.7732 125.463C79.0132 124.887 79.3612 124.379 79.8172 123.939C80.2812 123.491 80.8492 123.135 81.5212 122.871C82.1932 122.599 82.9612 122.463 83.8252 122.463C84.7932 122.463 85.6812 122.619 86.4892 122.931C87.3052 123.235 88.0132 123.675 88.6132 124.251L87.9892 125.463ZM94.9248 140.079C93.9408 140.079 93.1808 139.803 92.6448 139.251C92.1168 138.699 91.8528 137.911 91.8528 136.887V129.591H90.4368C90.3008 129.591 90.1848 129.551 90.0888 129.471C90.0008 129.383 89.9568 129.255 89.9568 129.087V128.139L91.9368 127.863L92.4648 124.227C92.4968 124.091 92.5568 123.987 92.6448 123.915C92.7408 123.835 92.8608 123.795 93.0048 123.795H94.1928V127.887H97.6488V129.591H94.1928V136.731C94.1928 137.211 94.3088 137.571 94.5408 137.811C94.7808 138.043 95.0848 138.159 95.4528 138.159C95.6688 138.159 95.8528 138.131 96.0048 138.075C96.1648 138.019 96.3008 137.959 96.4128 137.895C96.5248 137.823 96.6208 137.759 96.7008 137.703C96.7808 137.647 96.8528 137.619 96.9168 137.619C96.9968 137.619 97.0568 137.639 97.0968 137.679C97.1448 137.711 97.1928 137.767 97.2408 137.847L97.9368 138.975C97.5528 139.327 97.0968 139.599 96.5688 139.791C96.0408 139.983 95.4928 140.079 94.9248 140.079ZM109.944 127.695V139.887H108.54C108.22 139.887 108.012 139.731 107.916 139.419L107.748 138.195C107.484 138.475 107.208 138.731 106.92 138.963C106.632 139.195 106.324 139.395 105.996 139.563C105.668 139.723 105.32 139.847 104.952 139.935C104.584 140.031 104.188 140.079 103.764 140.079C103.092 140.079 102.5 139.967 101.988 139.743C101.484 139.519 101.06 139.207 100.716 138.807C100.372 138.399 100.112 137.911 99.9362 137.343C99.7602 136.775 99.6722 136.147 99.6722 135.459V127.695H102.024V135.459C102.024 136.331 102.224 137.011 102.624 137.499C103.024 137.979 103.636 138.219 104.46 138.219C105.06 138.219 105.62 138.079 106.14 137.799C106.66 137.511 107.148 137.119 107.604 136.623V127.695H109.944ZM121.07 130.647C120.686 130.143 120.27 129.791 119.822 129.591C119.382 129.391 118.886 129.291 118.334 129.291C117.262 129.291 116.43 129.679 115.838 130.455C115.254 131.223 114.962 132.347 114.962 133.827C114.962 134.603 115.026 135.267 115.154 135.819C115.29 136.363 115.482 136.811 115.73 137.163C115.986 137.507 116.298 137.763 116.666 137.931C117.034 138.091 117.45 138.171 117.914 138.171C118.594 138.171 119.182 138.019 119.678 137.715C120.174 137.411 120.638 136.983 121.07 136.431V130.647ZM123.422 122.175V139.887H122.006C121.678 139.887 121.474 139.731 121.394 139.419L121.19 138.015C120.67 138.631 120.078 139.127 119.414 139.503C118.758 139.871 117.998 140.055 117.134 140.055C116.438 140.055 115.806 139.919 115.238 139.647C114.678 139.375 114.198 138.979 113.798 138.459C113.398 137.931 113.09 137.279 112.874 136.503C112.658 135.727 112.55 134.835 112.55 133.827C112.55 132.923 112.67 132.083 112.91 131.307C113.15 130.531 113.498 129.859 113.954 129.291C114.41 128.723 114.962 128.279 115.61 127.959C116.258 127.631 116.99 127.467 117.806 127.467C118.542 127.467 119.166 127.587 119.678 127.827C120.198 128.067 120.662 128.407 121.07 128.847V122.175H123.422ZM134.763 132.435C134.763 131.971 134.695 131.543 134.559 131.151C134.431 130.759 134.239 130.419 133.983 130.131C133.727 129.843 133.415 129.619 133.047 129.459C132.679 129.299 132.255 129.219 131.775 129.219C130.791 129.219 130.015 129.503 129.447 130.071C128.887 130.639 128.531 131.427 128.379 132.435H134.763ZM136.695 138.147C136.407 138.483 136.075 138.775 135.699 139.023C135.323 139.263 134.923 139.459 134.499 139.611C134.075 139.763 133.635 139.875 133.179 139.947C132.731 140.019 132.287 140.055 131.847 140.055C131.007 140.055 130.227 139.915 129.507 139.635C128.795 139.347 128.175 138.931 127.647 138.387C127.127 137.835 126.719 137.155 126.423 136.347C126.135 135.531 125.991 134.595 125.991 133.539C125.991 132.691 126.123 131.903 126.387 131.175C126.651 130.439 127.027 129.799 127.515 129.255C128.011 128.711 128.615 128.283 129.327 127.971C130.039 127.659 130.839 127.503 131.727 127.503C132.471 127.503 133.155 127.627 133.779 127.875C134.411 128.115 134.955 128.467 135.411 128.931C135.867 129.395 136.223 129.967 136.479 130.647C136.743 131.327 136.875 132.103 136.875 132.975C136.875 133.335 136.835 133.579 136.755 133.707C136.675 133.827 136.527 133.887 136.311 133.887H128.319C128.343 134.615 128.447 135.251 128.631 135.795C128.815 136.331 129.067 136.779 129.387 137.139C129.715 137.499 130.103 137.767 130.551 137.943C130.999 138.119 131.499 138.207 132.051 138.207C132.571 138.207 133.019 138.147 133.395 138.027C133.779 137.907 134.107 137.779 134.379 137.643C134.659 137.499 134.891 137.367 135.075 137.247C135.267 137.127 135.435 137.067 135.579 137.067C135.771 137.067 135.919 137.139 136.023 137.283L136.695 138.147ZM141.586 129.387C141.85 129.107 142.126 128.851 142.414 128.619C142.702 128.387 143.006 128.191 143.326 128.031C143.654 127.863 144.002 127.735 144.37 127.647C144.746 127.551 145.146 127.503 145.57 127.503C146.242 127.503 146.83 127.615 147.334 127.839C147.846 128.063 148.274 128.379 148.618 128.787C148.962 129.187 149.222 129.671 149.398 130.239C149.574 130.807 149.662 131.435 149.662 132.123V139.887H147.31V132.123C147.31 131.251 147.11 130.575 146.71 130.095C146.31 129.607 145.698 129.363 144.874 129.363C144.274 129.363 143.71 129.507 143.182 129.795C142.662 130.075 142.178 130.459 141.73 130.947V139.887H139.39V127.695H140.794C141.122 127.695 141.326 127.851 141.406 128.163L141.586 129.387ZM156.472 140.079C155.488 140.079 154.728 139.803 154.192 139.251C153.664 138.699 153.4 137.911 153.4 136.887V129.591H151.984C151.848 129.591 151.732 129.551 151.636 129.471C151.548 129.383 151.504 129.255 151.504 129.087V128.139L153.484 127.863L154.012 124.227C154.044 124.091 154.104 123.987 154.192 123.915C154.288 123.835 154.408 123.795 154.552 123.795H155.74V127.887H159.196V129.591H155.74V136.731C155.74 137.211 155.856 137.571 156.088 137.811C156.328 138.043 156.632 138.159 157 138.159C157.216 138.159 157.4 138.131 157.552 138.075C157.712 138.019 157.848 137.959 157.96 137.895C158.072 137.823 158.168 137.759 158.248 137.703C158.328 137.647 158.4 137.619 158.464 137.619C158.544 137.619 158.604 137.639 158.644 137.679C158.692 137.711 158.74 137.767 158.788 137.847L159.484 138.975C159.1 139.327 158.644 139.599 158.116 139.791C157.588 139.983 157.04 140.079 156.472 140.079ZM168.539 129.795C168.475 129.899 168.407 129.975 168.335 130.023C168.263 130.063 168.171 130.083 168.059 130.083C167.931 130.083 167.787 130.039 167.627 129.951C167.475 129.863 167.287 129.767 167.063 129.663C166.847 129.559 166.591 129.463 166.295 129.375C165.999 129.287 165.647 129.243 165.239 129.243C164.903 129.243 164.595 129.287 164.315 129.375C164.043 129.455 163.811 129.571 163.619 129.723C163.427 129.867 163.279 130.043 163.175 130.251C163.071 130.451 163.019 130.667 163.019 130.899C163.019 131.203 163.107 131.455 163.283 131.655C163.467 131.855 163.703 132.027 163.991 132.171C164.287 132.315 164.619 132.447 164.987 132.567C165.363 132.679 165.743 132.799 166.127 132.927C166.519 133.055 166.899 133.203 167.267 133.371C167.643 133.531 167.975 133.735 168.263 133.983C168.559 134.223 168.795 134.515 168.971 134.859C169.155 135.203 169.247 135.623 169.247 136.119C169.247 136.687 169.143 137.215 168.935 137.703C168.735 138.183 168.435 138.599 168.035 138.951C167.643 139.303 167.155 139.579 166.571 139.779C165.987 139.979 165.319 140.079 164.567 140.079C163.727 140.079 162.951 139.939 162.239 139.659C161.527 139.379 160.931 139.023 160.451 138.591L161.003 137.691C161.067 137.579 161.147 137.495 161.243 137.439C161.339 137.375 161.467 137.343 161.627 137.343C161.779 137.343 161.935 137.399 162.095 137.511C162.255 137.623 162.447 137.747 162.671 137.883C162.895 138.011 163.167 138.131 163.487 138.243C163.807 138.347 164.207 138.399 164.687 138.399C165.087 138.399 165.435 138.351 165.731 138.255C166.027 138.151 166.271 138.015 166.463 137.847C166.663 137.671 166.811 137.471 166.907 137.247C167.003 137.023 167.051 136.787 167.051 136.539C167.051 136.219 166.959 135.955 166.775 135.747C166.599 135.531 166.363 135.347 166.067 135.195C165.779 135.043 165.447 134.911 165.071 134.799C164.695 134.687 164.311 134.567 163.919 134.439C163.527 134.311 163.143 134.163 162.767 133.995C162.391 133.827 162.055 133.615 161.759 133.359C161.471 133.103 161.235 132.791 161.051 132.423C160.875 132.055 160.787 131.607 160.787 131.079C160.787 130.607 160.883 130.155 161.075 129.723C161.275 129.291 161.559 128.911 161.927 128.583C162.303 128.255 162.763 127.995 163.307 127.803C163.859 127.603 164.487 127.503 165.191 127.503C165.999 127.503 166.727 127.631 167.375 127.887C168.031 128.143 168.591 128.495 169.055 128.943L168.539 129.795Z" fill="white"/>
</svg>
