<svg width="166" height="92" viewBox="0 0 166 92" fill="none" xmlns="http://www.w3.org/2000/svg">
<g clip-path="url(#clip0_152_781)">
<path d="M54.8287 69.9842C55.6265 70.9834 56.0253 72.3702 56.0253 74.1475V76.6789C56.0253 78.5441 55.5872 79.9308 54.7108 80.8422C53.8345 81.7536 52.4777 82.2078 50.6374 82.2078H47.7454V91.8003H46.2164V68.4854H51.0362C52.7647 68.4854 54.0279 68.985 54.8257 69.9842H54.8287ZM53.5837 79.8612C54.1941 79.2284 54.4963 78.2019 54.4963 76.7788V74.0476C54.4963 72.6941 54.2303 71.6616 53.6985 70.9501C53.1667 70.2385 52.2812 69.8842 51.0393 69.8842H47.7485V80.8089H50.6404C51.9911 80.8089 52.9733 80.494 53.5837 79.8612Z" fill="black"/>
<path d="M68.9921 91.7974H67.596L72.6818 68.4492H74.9089L80.0945 91.7974H78.5654L77.402 86.6348H70.1556L68.9921 91.7974ZM77.1693 85.3026L73.7455 70.2145L70.3882 85.3026H77.1693Z" fill="black"/>
<path d="M101.099 69.8995C101.918 70.9775 102.329 72.4036 102.329 74.178V75.9099H100.867V74.078C100.867 72.7458 100.583 71.6799 100.018 70.8806C99.4525 70.0812 98.5611 69.6815 97.3433 69.6815C96.1255 69.6815 95.231 70.0812 94.6659 70.8806C94.1008 71.6799 93.8198 72.7458 93.8198 74.078V86.2018C93.8198 87.5341 94.1038 88.5938 94.6659 89.3841C95.231 90.1714 96.1224 90.565 97.3433 90.565C98.5641 90.565 99.4555 90.1714 100.018 89.3841C100.583 88.5969 100.867 87.5341 100.867 86.2018V81.1724H97.7754V79.7735H102.329V86.1019C102.329 87.8792 101.918 89.3054 101.099 90.3803C100.281 91.4582 99.0174 91.9942 97.31 91.9942C95.6027 91.9942 94.3395 91.4552 93.5206 90.3803C92.7017 89.3024 92.2907 87.8762 92.2907 86.1019V74.178C92.2907 72.4006 92.7017 70.9744 93.5206 69.8995C94.3395 68.8216 95.6027 68.2856 97.31 68.2856C99.0174 68.2856 100.281 68.8246 101.099 69.8995Z" fill="black"/>
<path d="M122.739 80.6728H116.39V90.3984H124.035V91.7973H114.861V68.4824H124.035V69.8813H116.39V79.2739H122.739V80.6728Z" fill="black"/>
<path d="M145.095 69.8662C145.905 70.9199 146.307 72.337 146.307 74.1113V74.6109H144.844V74.0114C144.844 72.6791 144.566 71.6254 144.013 70.8473C143.46 70.0691 142.584 69.6815 141.387 69.6815C140.19 69.6815 139.314 70.0691 138.761 70.8473C138.208 71.6254 137.93 72.667 137.93 73.9781C137.93 74.8229 138.108 75.5708 138.462 76.2248C138.815 76.8789 139.253 77.4451 139.776 77.9235C140.296 78.4019 141.012 78.9742 141.919 79.6403C142.871 80.3276 143.647 80.9393 144.246 81.4722C144.844 82.0051 145.343 82.6591 145.741 83.4373C146.14 84.2155 146.34 85.1238 146.34 86.1685C146.34 87.9459 145.929 89.3599 145.11 90.4136C144.291 91.4673 143.028 91.9972 141.32 91.9972C139.613 91.9972 138.35 91.4703 137.531 90.4136C136.712 89.3599 136.301 87.9428 136.301 86.1685V84.9694H137.764V86.2684C137.764 87.6007 138.045 88.6514 138.61 89.4144C139.175 90.1805 140.066 90.562 141.287 90.562C142.508 90.562 143.396 90.1805 143.962 89.4144C144.527 88.6483 144.811 87.5977 144.811 86.2684C144.811 85.4236 144.632 84.6818 144.279 84.0368C143.925 83.3919 143.487 82.8317 142.967 82.3563C142.448 81.8779 141.743 81.3178 140.855 80.6728C139.903 79.9855 139.127 79.3678 138.528 78.8258C137.93 78.2808 137.425 77.6146 137.017 76.8274C136.606 76.0401 136.401 75.1227 136.401 74.0811C136.401 72.2825 136.812 70.8715 137.631 69.8511C138.45 68.8307 139.692 68.3068 141.354 68.2856C143.037 68.2856 144.285 68.8125 145.095 69.8692V69.8662Z" fill="black"/>
<path d="M76.5347 47.4108C72.7121 58.3325 62.3743 65.6691 50.8096 65.6691C44.2491 65.6691 37.9123 63.3013 32.9625 59.0016C28.061 54.7474 24.8306 48.8854 23.8637 42.4965L23.6974 41.4155H32.5968L32.7328 42.1907C34.1954 50.475 41.7954 56.4885 50.8096 56.4885C57.3217 56.4885 63.1902 53.3637 66.4931 48.2404H49.9846C48.1081 48.2404 46.582 46.7113 46.582 44.828C46.582 42.9446 48.1081 41.4186 49.9846 41.4186H72.3374C73.7969 41.4186 75.1205 42.1059 75.9666 43.2928C76.8097 44.4858 77.0212 46.024 76.5347 47.4108Z" fill="black"/>
<path d="M50.8096 7.9332C37.1508 7.9332 25.8218 18.1221 23.9966 31.3117H23.5615C21.7272 31.3117 20.2344 32.8075 20.2344 34.6454V34.712C20.2344 36.55 21.7272 38.0458 23.5615 38.0458H77.7797C77.8613 37.1525 77.8915 36.2532 77.8764 35.354V35.3449C77.8764 35.3237 77.8795 35.2994 77.8764 35.2783C77.8825 35.2056 77.8825 35.1359 77.8825 35.0572C77.8825 20.0993 65.7376 7.93018 50.8066 7.93018L50.8096 7.9332ZM50.8096 17.2077C59.3192 17.2077 66.4447 23.2726 68.1037 31.3117H33.5185C35.1775 23.2726 42.297 17.2077 50.8066 17.2077H50.8096Z" fill="black"/>
<path d="M0 0.415053C0 0.415053 25.1147 -1.36233 24.6735 22.7641C24.6735 22.7641 20.5668 12.4631 10.6672 10.5374C10.6672 10.5374 21.7181 14.622 23.6098 23.8874C23.6642 24.1599 22.2046 24.7746 22.0445 24.8382C20.3946 25.4892 18.5422 25.3862 16.8529 24.9472C11.7037 23.6058 7.16786 19.5333 4.50258 15.0187C3.05208 12.56 2.81638 10.2527 2.42656 7.48825C2.24524 6.19533 1.85845 4.94481 1.40214 3.72759C1.2722 3.38543 0.214552 0.399914 0 0.415053Z" fill="black"/>
<path d="M29.8862 0C29.8862 0 19.5273 6.21024 26.3144 15.5756C26.3144 15.5756 25.1056 10.3948 28.469 6.91575C28.469 6.91575 25.2446 11.5606 27.0396 15.7239C27.091 15.845 27.8344 15.6876 27.916 15.6664C28.744 15.4696 29.442 14.9185 29.9859 14.2796C31.6419 12.3357 32.3098 9.48644 32.1194 6.97933C32.0166 5.61374 31.4757 4.64179 30.8714 3.44879C30.5903 2.89165 30.3969 2.29213 30.2428 1.68957C30.2005 1.52001 29.7956 0.0545024 29.8862 0V0Z" fill="black"/>
<path d="M89.9246 20.4145V37.3042L109.041 17.326C109.96 16.3631 110.739 15.6516 111.386 15.1913C112.03 14.7311 112.888 14.501 113.96 14.501C115.36 14.501 116.49 14.9128 117.354 15.7333C118.218 16.5539 118.65 17.5561 118.65 18.74C118.65 20.1632 117.919 21.5772 116.454 22.9791L104.617 34.2157L118.258 53.8002C119.219 55.1597 119.941 56.3467 120.421 57.3641C120.902 58.3814 121.143 59.3746 121.143 60.3375C121.143 61.4124 120.723 62.3419 119.88 63.1292C119.037 63.9165 117.898 64.3131 116.454 64.3131C115.097 64.3131 113.994 64.0224 113.142 63.4411C112.289 62.8597 111.567 62.0876 110.978 61.1247C110.389 60.1618 109.863 59.2838 109.404 58.4965L97.8933 40.753L89.9246 48.4075V58.3633C89.9246 60.3799 89.4653 61.8726 88.5466 62.8476C87.628 63.8226 86.4464 64.3101 85.005 64.3101C84.174 64.3101 83.3762 64.0921 82.6117 63.653C81.8472 63.214 81.2549 62.6235 80.8409 61.8787C80.5357 61.267 80.3483 60.5524 80.2849 59.744C80.2184 58.9325 80.1851 57.7607 80.1851 56.2286V20.4145C80.1851 18.4433 80.6173 16.9657 81.4815 15.9786C82.3458 14.9915 83.5213 14.501 85.008 14.501C86.4948 14.501 87.6582 14.9885 88.5648 15.9635C89.4713 16.9384 89.9246 18.4221 89.9246 20.4175V20.4145Z" fill="black"/>
<path d="M141.375 14.1436C127.776 14.1436 116.75 25.1894 116.75 38.818C116.75 52.4466 127.773 63.4924 141.375 63.4924C154.976 63.4924 166 52.4466 166 38.818C166 25.1894 154.976 14.1436 141.375 14.1436ZM141.375 54.5177C132.723 54.5177 125.703 47.4869 125.703 38.815C125.703 30.143 132.72 23.1122 141.375 23.1122C150.029 23.1122 157.046 30.143 157.046 38.815C157.046 47.4869 150.029 54.5177 141.375 54.5177Z" fill="black"/>
</g>
<defs>
<clipPath id="clip0_152_781">
<rect width="166" height="92" fill="white"/>
</clipPath>
</defs>
</svg>
