<svg width="40" height="41" viewBox="0 0 40 41" fill="none" xmlns="http://www.w3.org/2000/svg">
    <g clip-path="url(#clip0_1_4282)">
        <path d="M19.8414 2.21289C9.07668 2.21289 0.140625 9.45898 0.140625 18.6484C0.140625 24.1025 3.2936 28.8666 8.10383 31.8426C7.77837 33.6236 6.20503 35.1627 4.70775 36.7482C4.5542 36.9112 4.45467 37.1176 4.42272 37.3392C4.39077 37.5608 4.42796 37.7869 4.52922 37.9866C4.63047 38.1863 4.79087 38.35 4.98853 38.4552C5.18618 38.5604 5.41149 38.6021 5.6337 38.5745C9.16218 38.1336 12.4101 36.2325 14.816 34.5417C16.4665 34.9043 18.1515 35.0866 19.8414 35.0855C30.6061 35.0855 39.5429 27.8382 39.5429 18.6484C39.5429 9.45858 30.6061 2.21289 19.8414 2.21289ZM19.8414 4.38908C29.636 4.38908 37.3664 10.8853 37.3664 18.6488C37.3664 26.4122 29.636 32.9089 19.8418 32.9089C18.9202 32.9091 17.9996 32.8501 17.0856 32.7323C16.9867 32.7193 16.8886 32.7048 16.7901 32.6906C16.6494 32.6701 16.5076 32.6508 16.3677 32.6275C16.2629 32.6102 16.1592 32.5905 16.0548 32.5716C15.9366 32.5503 15.8172 32.5294 15.6994 32.5062C15.5706 32.4806 15.4425 32.4522 15.3145 32.4246C15.2096 32.4018 15.104 32.3801 15 32.3557C14.7789 32.304 14.5586 32.2487 14.3392 32.1898C13.9737 32.4516 13.6035 32.707 13.2289 32.9558L13.2222 32.9601C12.9034 33.1699 12.5815 33.3748 12.2564 33.5748C11.1808 34.243 10.0172 34.8896 8.80283 35.403C9.34579 34.6591 9.80995 33.8399 10.0842 32.925C10.1252 32.7875 10.1602 32.6472 10.1922 32.5054C10.2036 32.4546 10.215 32.4041 10.2253 32.3529C10.2489 32.2335 10.2698 32.1125 10.2863 31.99C10.2989 31.8994 10.3068 31.8068 10.3155 31.7142C10.3234 31.624 10.3336 31.5349 10.3375 31.4423C10.3462 31.2433 10.3466 31.0404 10.334 30.832C10.3304 30.7556 10.3188 30.6798 10.2993 30.6058L10.2974 30.605L10.2855 30.5983C10.0244 30.4584 9.76679 30.312 9.51286 30.1594C9.42144 30.105 9.3324 30.049 9.24256 29.9927C5.01863 27.3689 2.3176 23.2324 2.3176 18.6488C2.3176 10.8853 10.0472 4.38908 19.8418 4.38908H19.8414ZM19.0344 5.24214C18.8981 5.24332 18.761 5.25002 18.6239 5.25475C18.6424 5.30203 18.6443 5.35917 18.6053 5.4427C19.142 5.55618 19.6637 5.22086 20.2114 5.37177C20.6984 5.47619 21.2737 5.62316 21.5861 5.98842C21.78 6.08023 20.8753 5.69487 21.066 6.11017C21.2831 6.55424 21.8864 6.50223 22.2729 6.28C22.7867 6.20907 22.3568 6.72879 22.7055 6.86C22.3671 6.8931 21.8485 7.14448 21.3954 7.16931C20.9856 7.16103 21.0621 7.52944 21.4277 7.50856C21.8411 7.60628 22.4364 7.31234 22.5814 7.84624C22.6463 7.85667 22.7062 7.88734 22.7525 7.93387C22.7989 7.9804 22.8293 8.0404 22.8395 8.10529C22.8497 8.17018 22.8391 8.23662 22.8092 8.29512C22.7794 8.35362 22.7318 8.40117 22.6732 8.43097C22.832 8.64768 23.1366 8.83169 22.9735 9.0551C22.7646 9.45188 22.2792 9.38135 21.8269 9.44952C21.4053 9.47986 20.9403 9.14612 20.5471 9.44558C20.0861 9.71588 20.0565 10.3026 19.5845 10.5528C19.2417 11.0827 19.4631 11.3566 19.644 11.5181C19.9446 11.6214 20.6334 11.5607 20.9797 11.3006C21.0144 11.0851 20.9273 10.8278 20.8958 10.6765C20.9852 10.7474 21.0112 10.7959 21.0097 10.8262C21.0191 10.9275 21.1866 11.0035 21.2043 11.0217C21.425 11.1501 21.1799 11.5453 21.1677 11.6403C20.7319 11.6009 20.2677 11.6659 19.8177 11.6966C19.8564 11.8964 19.339 12.0765 19.3607 12.0879C18.8898 12.0032 18.6715 12.1844 18.3579 12.4031C18.3358 12.4118 18.0833 12.4819 18.0833 12.4819C18.112 12.5134 17.9989 12.6573 18.0458 12.6521C18.642 12.5879 18.6979 12.915 18.6774 13.2132C18.4261 13.5627 17.3559 13.0162 17.5545 13.7601C17.4662 14.1207 17.2523 14.7085 17.9079 14.6494H17.9087C17.9087 14.6494 18.2547 14.5695 18.2795 14.5695C18.3047 14.5695 19.0726 14.2787 19.0726 14.2787L19.0947 14.2771C19.1002 14.231 19.1302 14.1687 19.1972 14.0801C19.3749 13.8299 19.7173 13.6045 20.0609 13.6053C19.8954 13.7826 20.2327 14.1569 20.1578 14.2913L20.4781 14.3161C20.5565 14.2511 20.5628 14.2042 20.6109 14.1412C20.6613 14.0856 20.488 13.7798 20.5412 13.7586C20.5487 13.7554 20.5609 13.7566 20.5794 13.7668C20.8032 13.8693 21.4671 14.2452 20.8769 14.2846C20.8887 14.6928 20.9486 14.519 21.2969 14.6187C21.4947 14.6093 21.5743 14.1321 21.7839 14.0986C21.8175 14.0939 21.8517 14.0991 21.8824 14.1136C21.9644 14.2117 22.0617 14.3267 22.1693 14.4351C22.3151 14.5391 22.5475 14.5151 22.7252 14.3748C22.8178 14.2444 22.6366 13.9721 22.6622 13.9804C22.7386 14.082 22.9321 14.3122 22.9506 14.4079C23.245 14.6321 23.6232 14.5777 23.9038 14.7156C24.1579 14.6443 24.5094 14.7148 24.2225 14.9808C23.7856 15.0415 23.2982 15.1132 22.8647 14.969C22.5038 14.8051 22.0696 14.8914 21.9514 15.2495C21.6149 15.1053 21.2079 14.9737 20.8572 14.8141C19.813 14.2865 18.7889 14.4769 17.8232 14.7302L17.9079 14.6494C17.6865 14.8918 17.3027 15.0742 17.2314 15.4572C16.9233 15.7716 16.4492 15.9135 16.2467 16.3489C15.8046 16.6944 16.1183 17.1751 15.9918 17.6003C15.7774 17.7843 15.6261 17.9651 15.9043 18.1897C16.0107 18.5767 16.5091 19.4711 16.6463 19.862C17.06 20.1449 17.5277 20.5728 18.0915 20.3116C18.6156 20.3714 19.0983 20.2095 19.566 20.0925C19.8552 20.3076 20.1578 20.4116 20.5148 20.4562C20.6519 20.8313 20.2468 21.3372 20.7969 21.5965C21.1224 21.9684 21.3328 22.5078 21.1815 22.9625C20.8398 23.3306 20.7898 23.8613 21.1149 24.2534C21.4139 24.7022 21.2016 25.2648 21.5775 25.7018C21.8217 25.9705 21.4892 26.7117 22.0739 26.6455C22.5231 26.4386 23.0846 26.6983 23.4948 26.3846C23.8585 26.1147 24.2722 25.8566 24.457 25.4614C24.7024 25.1163 25.2364 24.9906 25.0937 24.4961C25.0831 23.9224 26.0283 24.0776 26.1225 23.5228C26.3885 22.9712 25.9428 22.4149 26.0622 21.8589C26.3148 21.3861 26.7321 20.2749 27.182 19.9384C27.6864 19.4601 27.937 18.7961 27.926 18.1456C27.5918 17.7839 27.0079 18.499 26.7569 18.2473L25.9137 17.501L25.9153 17.5002C25.7545 17.3753 25.5425 17.1109 25.5208 17.0053C25.4385 16.8342 25.3391 16.6718 25.2241 16.5207C25.0823 16.3343 24.6292 15.7917 24.7001 15.8611C24.9022 16.0738 25.1264 16.3233 25.3522 16.5735C25.5784 16.8237 25.7714 17.1763 26.0902 17.4285C26.8353 18.1456 27.1592 18.0814 27.883 17.6082C28.1903 17.3138 28.6533 17.1302 28.7207 16.6873C28.9004 16.354 28.6774 16.0234 28.4047 15.8796C28.1013 15.8303 27.794 15.9009 27.4551 15.8303C27.2888 15.6333 27.0087 15.4867 26.8164 15.3508C26.8077 15.3319 26.7797 15.3047 26.7443 15.2539C26.7206 15.2322 26.723 15.2279 26.7325 15.2283C26.7415 15.2291 26.7573 15.2342 26.76 15.2302C26.8034 15.2618 26.829 15.2889 26.842 15.298L27.3416 15.5856C27.6214 15.8067 27.9788 15.759 28.3401 15.7945C28.8405 15.8221 29.4942 15.5344 29.8374 16.0199C30.0021 16.419 30.7156 16.3595 30.6983 16.8836C30.9796 17.4305 31.3339 17.9569 31.5435 18.5254C31.694 18.8139 32.0884 18.6929 32.0892 19.0255C32.5376 19.3935 32.7642 18.6669 32.4497 18.4072C32.1976 17.9427 31.9671 17.4017 32.1361 16.8903C32.4119 16.5112 32.2669 15.9556 32.6452 15.6459C33.2338 15.6901 33.2074 16.3497 33.5093 16.6676C34.1279 16.6984 34.1381 17.3824 34.2563 17.7985C34.1243 18.224 34.6882 18.6342 34.6287 18.9719C34.3414 18.5798 33.8265 19.018 34.1886 19.3214C34.5641 19.7524 34.6452 20.3064 34.7989 20.8202C34.8734 21.2344 35.0991 21.6138 35.2 22.0145C35.2548 22.2982 35.4758 22.4783 35.7059 22.6524C35.7434 22.5587 35.7836 22.4665 35.8182 22.3715C35.8706 22.2285 35.916 22.0819 35.9628 21.9365C35.9014 21.8963 35.8234 21.8778 35.7154 21.8963C35.4171 21.4798 35.8017 20.9266 35.4451 20.5243C35.3285 20.1165 35.5081 19.7174 35.3454 19.3202C35.3454 18.7922 34.9183 18.4187 34.715 17.9557C34.5727 17.7508 34.5452 17.0313 34.8017 17.5467C34.9514 17.724 35.1102 18.2733 35.2851 18.1964C35.4963 17.6673 35.6685 17.0766 35.4289 16.5309C35.4226 16.1239 34.763 15.7539 34.8024 15.486C35.4479 15.326 34.5144 14.6494 34.83 14.2684C34.9344 13.969 34.6303 13.4366 35.111 13.6368C35.1492 13.5671 35.159 13.4973 35.1594 13.428C35.0577 13.2334 34.9508 13.0415 34.8387 12.8527C34.8151 12.8133 34.789 12.7751 34.765 12.7357L34.7638 12.7349C34.6831 12.6494 34.6023 12.5678 34.5361 12.4933C34.1807 12.2672 34.1763 11.8574 33.9056 11.5733C33.607 11.2289 33.2732 10.8987 32.8434 10.684C32.5991 10.5264 32.2224 10.1997 32.2949 9.96214C32.4131 10.0488 32.5861 10.1509 32.7228 10.18C32.7082 10.1659 32.6948 10.1509 32.6802 10.1367C29.3393 6.88285 24.3246 5.13142 19.7551 5.2516C19.5148 5.24278 19.2744 5.23949 19.034 5.24175L19.0344 5.24214ZM17.5391 5.32528C11.4144 5.93996 5.19594 9.92353 3.58833 15.8883V15.889C3.66359 16.1932 3.82908 16.5605 4.27353 16.7047C4.55014 16.8248 4.4406 17.2098 4.75306 17.3812C5.16442 17.7205 4.89333 18.2181 5.24756 18.5739C5.36183 18.8206 5.50052 19.0026 5.79801 18.8478C6.29724 19.0227 5.82677 19.6933 5.6203 19.9944C5.29445 20.3884 5.60376 20.877 5.42211 21.2978C5.56081 21.8408 6.04073 22.2482 6.2401 22.7722C6.38195 23.2998 6.90246 23.5323 7.35795 23.8046C7.73897 24.1529 7.72439 24.6698 7.90367 25.1033C8.05261 25.5497 8.16372 26.0079 8.42338 26.4162C8.66138 26.8929 8.72481 27.4272 9.08456 27.8539C9.36471 28.231 9.64643 28.6053 9.88639 29.0041C10.1216 29.2795 10.4451 29.5084 10.6319 29.8126L10.7903 29.8954C10.7919 29.8958 10.793 29.897 10.7942 29.8977C11.2615 30.0605 11.8628 30.339 12.2474 29.9639C12.4184 29.4856 11.7355 29.6905 11.5184 29.3875C11.0539 29.1676 11.4081 28.5522 10.8155 28.4627C10.9609 28.274 10.6354 28.0833 10.7588 27.813C10.6752 27.5785 10.5101 27.2377 10.8927 27.1526C11.1177 26.8665 10.7268 26.5017 11.1252 26.3023C11.2505 25.8389 11.4633 25.3759 11.3998 24.8917C11.2655 24.2821 12.2241 24.4673 12.3207 23.9488C12.5327 23.4905 12.3916 22.996 12.4704 22.524C12.7037 22.0996 13.2848 21.6008 12.8589 21.111C12.4074 20.76 11.8246 20.6366 11.2934 20.4731C10.9475 20.23 10.2485 20.3419 10.3624 19.8245C10.2674 19.3135 9.74179 19.1149 9.25202 18.9853C8.79495 18.8525 8.92143 18.341 8.68856 18.1224C7.53289 17.8643 7.58963 17.9419 7.38159 17.7272C7.06282 17.6023 6.88906 17.7153 6.60812 17.8351C6.50055 18.0491 6.24995 18.1543 5.98044 18.17C5.32794 18.3032 5.71014 17.4651 5.8445 17.1866C5.98911 16.8367 5.4028 16.6649 5.35158 16.6294C5.53598 16.2326 5.77043 15.5198 6.41072 15.8217C6.629 15.9178 6.5896 16.1014 6.52498 16.2326C7.12114 16.3221 7.07937 16.7374 7.44818 16.9927C7.67356 16.72 8.55775 17.2953 8.34497 16.7094C7.94701 16.4127 7.4139 16.3134 7.09356 15.9068C6.9391 15.4761 7.72005 15.1538 7.41075 14.6936C7.27599 14.452 7.15542 14.8504 7.27126 14.5107C7.31697 13.9867 7.86111 13.7274 8.36271 13.6139C8.76461 13.3208 8.98644 12.7767 9.58891 12.7601C10.0298 12.8007 10.0948 12.1151 10.4873 12.5316C10.838 12.517 11.3857 12.5087 11.6217 12.2187C11.7249 12.2388 12.3585 12.7026 12.5449 12.2526C12.708 11.9981 12.4219 11.6328 12.8041 11.4713C12.9357 11.0083 12.76 10.4976 13.1631 10.1008C13.4468 9.71154 13.9756 9.60437 14.42 9.42312C14.647 9.26472 14.3747 9.06259 14.6817 8.91995C14.9535 8.63153 15.052 8.12994 15.5292 8.09172C15.8168 7.92701 15.6663 8.15988 15.7502 8.24066C16.0623 8.65832 15.212 8.81396 15.0572 9.15085C14.6367 9.48656 14.1568 9.93456 14.266 10.4819C14.5323 11.1261 15.1513 10.4661 15.4677 10.2265C16.1257 10.0138 16.8216 9.9192 17.4871 9.73282C17.7621 9.60201 17.6112 9.31792 17.9268 9.17095C18.2066 8.89513 18.2476 8.47746 18.6648 8.37581C18.7618 7.85806 18.0439 7.75207 17.6167 7.74261C17.504 7.27254 16.9102 7.31982 16.519 7.14645C16.8775 7.00342 16.0982 7.01446 16.3464 6.83518C16.1017 6.81075 15.846 6.47543 15.6108 6.70121C15.5201 6.58261 14.6407 6.70042 14.9953 6.28276C15.7715 5.81781 16.833 5.93208 17.5304 5.33986C17.5352 5.33552 17.5352 5.33001 17.5391 5.32528ZM20.6913 7.91598C20.6401 7.91362 20.5952 7.91992 20.5676 7.93805C20.3903 8.04128 20.2878 8.49717 20.6251 8.28321C20.8095 8.37344 21.2421 8.38645 20.9584 8.13427C21.0479 8.01291 20.8454 7.92307 20.6917 7.91598H20.6913ZM21.9593 7.99163C21.9269 7.99452 21.895 8.00073 21.8639 8.01015C21.5641 8.41048 21.9191 8.94872 22.3265 9.15952C22.6326 9.33643 23.1421 8.9168 22.6326 8.82657C22.1807 8.76747 22.386 7.95814 21.9589 7.99124L21.9593 7.99163ZM19.945 8.18549C19.9102 8.18323 19.8752 8.18455 19.8406 8.18943L19.7835 8.18707C19.2153 8.23829 19.2003 8.89198 19.785 8.93532C20.3595 9.03698 20.4332 8.22293 19.9458 8.18549H19.945ZM15.134 8.21071C15.1387 8.20835 15.1466 8.21071 15.1553 8.22371C15.1222 8.27415 15.1186 8.21938 15.134 8.21071ZM13.316 8.76353C13.513 8.78598 13.5071 8.9759 13.2482 8.85257C13.1434 8.87188 13.0362 8.79111 13.219 8.76589C13.2557 8.76116 13.288 8.76037 13.316 8.76353ZM12.1733 8.77692C12.2066 8.77252 12.2405 8.77658 12.2718 8.78874C12.1339 9.08899 12.3924 9.44558 11.9278 9.61028C11.6591 9.74937 11.1812 10.3562 11.085 9.77262C11.0535 9.273 11.5165 8.82618 12.074 8.78756C12.1067 8.78717 12.1398 8.77968 12.1733 8.77692ZM13.0618 9.80847C13.0567 10.0567 12.7092 9.82896 13.0618 9.80847V9.80847ZM17.0076 9.97396C16.9778 9.97634 16.9488 9.98395 16.9217 9.99642C16.8374 10.2368 16.1927 10.093 16.6037 10.3471C16.8437 10.7344 17.5651 10.7431 17.8827 10.4511C18.0391 10.0863 17.5647 9.92116 17.2641 10.026C17.1833 10.0019 17.0947 9.96766 17.008 9.97436L17.0076 9.97396ZM18.5447 11.1781C18.3256 11.1852 18.1396 11.318 18.1538 11.5776C17.8957 11.7404 17.3393 12.1671 17.7389 12.3877C18.2381 12.3338 18.5545 12.1758 19.0029 12.0189L19.0624 11.8113C18.9379 11.6671 18.8496 11.4933 18.9395 11.3014C18.8249 11.2182 18.6862 11.1748 18.5447 11.1781ZM11.4585 11.7802C11.4688 11.7857 11.4782 11.7959 11.4901 11.7987C11.6579 12.0371 10.9672 11.9386 11.4231 11.7825C11.4369 11.7731 11.4479 11.7743 11.4585 11.7802ZM25.4747 12.7451C25.5772 12.9224 26.1812 13.1242 26.0275 13.2467C25.8431 13.1447 25.4066 12.8369 25.4747 12.7451ZM23.2142 12.9618C23.4018 13.4299 23.9995 12.9524 24.3234 13.1904C24.5188 13.2444 24.6954 13.465 24.3498 13.3697C23.9755 13.0406 23.1599 13.8039 23.0807 13.2731C23.1035 13.1628 23.165 13.0635 23.2142 12.9618ZM26.2001 13.5024C26.2187 13.5011 26.2373 13.5029 26.2553 13.5076C26.6525 13.5344 26.5351 13.9989 26.2171 13.7184C26.1568 13.6695 26.0957 13.5127 26.2001 13.5024ZM5.8709 13.8086L5.91582 13.8307C5.97493 14.3811 6.75549 13.7298 6.74485 14.2925C6.69244 14.6163 6.40914 15.0395 6.79095 15.3098C7.07977 15.5183 6.65462 15.5581 6.53089 15.3618C6.18927 15.1904 5.9174 15.6798 5.52062 15.4631C5.10571 15.3248 5.00326 16.237 4.66637 15.7283C4.58481 15.3713 4.86339 15.0301 4.99854 14.6987C5.20658 14.3646 5.40241 13.9757 5.81653 13.8121L5.8709 13.8086ZM35.6244 14.4335C35.3198 14.6711 35.7867 15.192 35.8174 15.5108C36.0231 15.7838 36.0822 16.012 36.2075 16.2712C36.1945 16.2141 36.1851 16.155 36.1709 16.0979C36.0309 15.5301 35.8482 14.9738 35.6244 14.4335ZM22.7465 14.5013C22.0901 14.6498 22.7879 14.7499 23.0527 14.7507C23.1673 14.5446 22.9518 14.5687 22.7465 14.5013ZM6.54744 16.3839C6.23892 16.3883 6.6294 16.8698 6.91625 16.8055C7.10735 16.7606 6.97614 16.6806 6.88472 16.512C6.84011 16.4669 6.78541 16.4332 6.72515 16.4135C6.66765 16.3951 6.60779 16.3851 6.54744 16.3839ZM36.2938 16.6822C36.1669 17.0337 36.2048 17.4844 36.3655 17.7764C36.3925 17.775 36.4188 17.7677 36.4428 17.7551C36.4369 17.6822 36.4349 17.6101 36.4274 17.5368C36.3933 17.2504 36.3488 16.9654 36.2938 16.6822ZM27.9799 17.5562C27.9571 17.5581 27.9283 17.6164 27.9957 17.579C27.9933 17.5621 27.9878 17.5554 27.9799 17.5562ZM36.4605 18.0211C36.0365 18.3501 36.3596 18.9431 36.0133 19.3202C35.6665 19.5936 35.639 20.0121 35.7091 20.3931C35.8104 20.715 35.6981 21.3203 36.122 21.3872C36.1512 21.2777 36.1835 21.1689 36.2087 21.0582C36.4333 20.0881 36.5208 19.0724 36.4609 18.0211H36.4605ZM35.4065 20.4956C35.4289 20.4928 35.4557 20.5101 35.4183 20.5547C35.3655 20.52 35.3836 20.4979 35.4065 20.4956ZM27.3913 22.9239C27.3203 23.0398 27.1883 23.2971 27.013 23.1328C27.24 23.6497 26.104 23.5402 26.3243 24.1127C26.21 24.5205 25.7435 25.056 26.1899 25.4177C26.7415 25.608 26.9385 25.0647 27.1131 24.723C27.3073 24.3751 27.5024 24.0284 27.7116 23.6875C27.6667 23.4488 27.788 22.9428 27.3913 22.9239ZM27.1312 28.815C26.6005 28.8922 26.8909 29.6156 27.3172 29.2401C27.3724 29.101 27.3361 28.8339 27.1308 28.815H27.1312ZM12.178 28.9095C11.5736 28.9225 12.152 29.7815 12.4207 29.2334C12.4791 28.8914 12.3482 29.0041 12.1776 28.9091L12.178 28.9095ZM23.9215 30.1507C23.3714 30.1223 22.5337 30.3781 22.1819 30.3343C21.7957 30.2949 21.5164 30.1641 21.1551 30.3327C20.7216 30.3079 20.3166 30.1543 19.8804 30.155C19.8173 30.1548 19.7543 30.1581 19.6917 30.1649C19.1964 30.2831 18.6869 30.2768 18.1885 30.3607C17.8078 30.5341 17.8929 31.1105 17.4158 31.1716C17.3673 31.5042 17.0383 31.5617 16.7814 31.4801C16.7109 31.5499 16.7515 31.6586 16.779 31.7441C18.5411 31.9963 20.3907 32.0546 22.2804 31.9274C23.4762 31.8245 24.6867 31.5712 25.8719 31.1897C25.3396 31.2398 24.9168 31.1693 24.691 30.9159C24.7612 30.5692 24.1733 30.6216 24.3466 30.2953C24.256 30.2007 24.1047 30.1602 23.9211 30.1507H23.9215ZM13.8849 30.5526C13.7427 30.7307 13.7313 30.9151 13.7793 31.0936C13.8546 31.1161 13.9283 31.1409 14.0039 31.1622C14.1442 31.2024 14.2872 31.2374 14.4291 31.2745C14.3089 31.1972 14.2281 31.0936 14.2455 30.9238C14.1915 30.5112 14.076 30.6283 13.8849 30.5526ZM15.6423 31.5077C15.6131 31.5117 15.5773 31.5251 15.5446 31.5349L15.5623 31.5389C15.6844 31.5637 15.8082 31.5838 15.9315 31.6058C15.8251 31.5251 15.7384 31.4943 15.6423 31.5073V31.5077Z" fill="#BB7C03"/>
    </g>
    <defs>
        <clipPath id="clip0_1_4282">
            <rect width="39.4023" height="39.4023" fill="white" transform="translate(0.140625 0.697266)"/>
        </clipPath>
    </defs>
</svg>
