<svg width="49" height="48" viewBox="0 0 49 48" fill="none" xmlns="http://www.w3.org/2000/svg">
    <path d="M31.2188 10.8499L37.7395 4.44699L43.532 10.3573L45.1274 9.37036L37.7395 1.98242L30.3516 9.37036L31.2188 10.8499Z" fill="#232323"/>
    <path d="M31.2188 17.7464L37.7395 11.3435L43.532 17.2538L45.1274 16.2668L37.7395 8.87891L30.3516 16.2668L31.2188 17.7464Z" fill="#232323"/>
    <path d="M18.5315 10.8477C17.5574 10.8477 16.6052 11.1365 15.7952 11.6777C14.9852 12.2189 14.3539 12.9881 13.9812 13.8881C13.6084 14.7881 13.5108 15.7784 13.7009 16.7338C13.8909 17.6892 14.36 18.5668 15.0488 19.2557C15.7376 19.9445 16.6152 20.4136 17.5707 20.6036C18.5261 20.7936 19.5164 20.6961 20.4164 20.3233C21.3163 19.9505 22.0856 19.3192 22.6268 18.5093C23.168 17.6993 23.4568 16.7471 23.4568 15.7729C23.4568 14.4667 22.9379 13.2139 22.0142 12.2902C21.0906 11.3666 19.8378 10.8477 18.5315 10.8477ZM18.5315 18.7281C17.9471 18.7281 17.3757 18.5548 16.8897 18.2301C16.4038 17.9054 16.025 17.4438 15.8013 16.9038C15.5776 16.3639 15.5191 15.7697 15.6331 15.1964C15.7472 14.6232 16.0286 14.0966 16.4419 13.6833C16.8552 13.27 17.3818 12.9886 17.955 12.8746C18.5283 12.7605 19.1224 12.8191 19.6624 13.0427C20.2024 13.2664 20.664 13.6452 20.9887 14.1311C21.3134 14.6171 21.4867 15.1885 21.4867 15.7729C21.4867 16.5567 21.1754 17.3084 20.6212 17.8626C20.067 18.4168 19.3153 18.7281 18.5315 18.7281ZM27.3971 29.5638V28.5787C27.3971 26.7499 26.6706 24.996 25.3774 23.7029C24.0843 22.4098 22.3304 21.6833 20.5017 21.6833H16.5614C14.7326 21.6833 12.9788 22.4098 11.6856 23.7029C10.3925 24.996 9.66602 26.7499 9.66602 28.5787V29.5638H11.6361V28.5787C11.6361 27.2724 12.155 26.0197 13.0787 25.096C14.0024 24.1723 15.2552 23.6534 16.5614 23.6534H20.5017C21.8079 23.6534 23.0607 24.1723 23.9844 25.096C24.908 26.0197 25.4269 27.2724 25.4269 28.5787V29.5638H27.3971Z" fill="#232323"/>
    <path d="M37.7395 17.7441L39.3982 22.8491H44.7658L40.4233 26.0041L42.082 31.109L37.7395 27.954L33.397 31.109L35.0557 26.0041L30.7132 22.8491H36.0808L37.7395 17.7441Z" fill="#232323"/>
</svg>
