<svg width="50" height="38" viewBox="0 0 50 38" fill="none" xmlns="http://www.w3.org/2000/svg">
    <path d="M0.957031 19.0761C14.3129 -4.7574 35.5011 -4.6735 48.8425 19.0761C33.3644 42.3047 16.4592 42.0805 0.957031 19.0761Z" stroke="#232323" stroke-width="1.46588" stroke-linejoin="round"/>
    <path d="M38.3741 18.7698C38.3741 27.1278 32.3426 33.7578 25.0721 33.7578C17.8015 33.7578 11.7701 27.1278 11.7701 18.7698C11.7701 10.4117 17.8015 3.78177 25.0721 3.78177C32.3426 3.78177 38.3741 10.4117 38.3741 18.7698Z" stroke="#232323" stroke-width="1.46588"/>
    <path d="M15.9756 20.7915C15.9756 20.7915 20.5298 13.163 23.6216 13.163C26.7134 13.163 26.9223 16.403 29.2203 16.0646C30.7253 15.8431 30.7903 13.163 31.3101 11.8496" stroke="#232323" stroke-width="0.977255" stroke-linejoin="round"/>
    <path d="M19.2888 17.236C19.2888 17.7952 18.8957 18.1514 18.5239 18.1514C18.1522 18.1514 17.7591 17.7952 17.7591 17.236C17.7591 16.6769 18.1522 16.3207 18.5239 16.3207C18.8957 16.3207 19.2888 16.6769 19.2888 17.236Z" fill="#FAFAFA" stroke="#232323" stroke-width="0.977255"/>
    <path d="M23.6325 13.3962C23.6325 13.9554 23.2394 14.3116 22.8677 14.3116C22.4959 14.3116 22.1029 13.9554 22.1029 13.3962C22.1029 12.8371 22.4959 12.4808 22.8677 12.4808C23.2394 12.4808 23.6325 12.8371 23.6325 13.3962Z" fill="#FAFAFA" stroke="#232323" stroke-width="0.977255"/>
    <path d="M28.0632 15.2692C28.0632 15.8284 27.6701 16.1846 27.2984 16.1846C26.9266 16.1846 26.5335 15.8284 26.5335 15.2692C26.5335 14.7101 26.9266 14.3539 27.2984 14.3539C27.6701 14.3539 28.0632 14.7101 28.0632 15.2692Z" fill="#FAFAFA" stroke="#232323" stroke-width="0.977255"/>
    <path d="M32.7429 10.7771C32.7429 11.3362 32.3498 11.6924 31.9781 11.6924C31.6063 11.6924 31.2132 11.3362 31.2132 10.7771C31.2132 10.2179 31.6063 9.86167 31.9781 9.86167C32.3498 9.86167 32.7429 10.2179 32.7429 10.7771Z" fill="#FAFAFA" stroke="#232323" stroke-width="0.977255"/>
    <rect x="17.6761" y="24.182" width="1.86388" height="3.51559" stroke="#232323" stroke-width="0.977255"/>
    <rect x="22.1029" y="19.8793" width="1.86388" height="7.82122" stroke="#232323" stroke-width="0.977255"/>
    <rect x="26.5335" y="22.2191" width="1.86388" height="5.4812" stroke="#232323" stroke-width="0.977255"/>
    <rect x="30.8783" y="17.8168" width="1.86388" height="9.88044" stroke="#232323" stroke-width="0.977255"/>
</svg>
