<svg width="23" height="21" viewBox="0 0 23 21" fill="none" xmlns="http://www.w3.org/2000/svg">
<path d="M20.2913 2.91578C19.7805 2.40479 19.1741 1.99943 18.5066 1.72286C17.8392 1.4463 17.1238 1.30396 16.4013 1.30396C15.6788 1.30396 14.9634 1.4463 14.2959 1.72286C13.6285 1.99943 13.022 2.40479 12.5113 2.91578L11.4513 3.97578L10.3913 2.91578C9.3596 1.88409 7.96032 1.30449 6.50129 1.30449C5.04226 1.30449 3.64298 1.88409 2.61129 2.91578C1.5796 3.94747 1 5.34675 1 6.80578C1 8.26481 1.5796 9.66409 2.61129 10.6958L3.67129 11.7558L11.4513 19.5358L19.2313 11.7558L20.2913 10.6958C20.8023 10.185 21.2076 9.57859 21.4842 8.91114C21.7608 8.24368 21.9031 7.52827 21.9031 6.80578C21.9031 6.08329 21.7608 5.36788 21.4842 4.70043C21.2076 4.03297 20.8023 3.42654 20.2913 2.91578V2.91578Z" fill="#D80000" stroke="#D80000" stroke-width="2" stroke-linecap="round" stroke-linejoin="round"/>
</svg>
