<svg width="47" height="50" viewBox="0 0 47 50" fill="none" xmlns="http://www.w3.org/2000/svg">
    <path d="M20.2508 11.2433L18.6196 11.652M2.91997 14.6583V14.6583C0.956282 13.6561 0.945999 10.8538 2.90229 9.83728L18.8273 1.56198C19.7187 1.09877 20.7807 1.10285 21.6685 1.5729L36.712 9.53764C38.8909 10.6912 38.8793 13.8166 36.6919 14.954L32.892 16.9299M2.91997 14.6583V20.6426M2.91997 14.6583L7.40559 16.9476M2.91997 14.6583L18.6196 11.652M2.91997 20.6426L4.11128 25.7167C4.33596 26.6736 3.60982 27.59 2.62686 27.59V27.59C1.57526 27.59 0.839333 26.5506 1.18865 25.5587L2.91997 20.6426ZM32.892 16.9299L21.6486 22.7764C20.7715 23.2325 19.728 23.2365 18.8474 22.7871L7.40559 16.9476M32.892 16.9299V22.6873C32.892 23.222 32.7637 23.7559 32.4429 24.1835C28.0141 30.086 12.9983 30.7605 7.90393 24.2181C7.55394 23.7686 7.40559 23.2015 7.40559 22.6318V16.9476M18.6196 11.652L19.6841 10.5852C20.017 10.2516 20.5344 10.1878 20.9383 10.4307V10.4307C21.574 10.813 21.606 11.7229 20.9988 12.1489L20.8652 12.2426C20.4928 12.5038 20.0002 12.5167 19.6147 12.2752L18.6196 11.652ZM31.4648 40.6673V43.6625C31.4648 44.3557 30.664 44.7428 30.1173 44.3167V44.3167C29.8288 44.0918 29.4257 44.0828 29.1283 44.2956V44.2956C28.4531 44.779 27.5671 44.0747 27.8858 43.3078L28.2025 42.5456M31.4648 40.6673L29.6298 39.1113M31.4648 40.6673L32.5399 43.4209C32.8087 44.1092 33.7836 44.1064 34.0484 43.4165L34.1024 43.2757C34.2245 42.9577 34.5721 42.7887 34.8977 42.889V42.889C35.5123 43.0786 35.9973 42.353 35.5872 41.8575L34.931 41.0647M31.4648 40.6673L32.892 38.6013M29.6298 39.1113V39.1113C29.1628 38.7153 29.061 38.0349 29.3916 37.5196L30.1249 36.3763M29.6298 39.1113L28.2025 42.5456M32.892 38.6013V38.6013C33.126 38.2626 33.0754 37.8034 32.7732 37.5238L31.3119 36.172M32.892 38.6013L34.931 41.0647M8.83283 36.3763L26.7753 32.5069M8.83283 36.3763C4.55111 37.1937 2.3083 41.0647 4.14332 45.5714M8.83283 36.3763C13.9301 35.2771 20.2508 45.367 13.9301 48.0234M34.931 41.0647L42.7046 39.2914C43.2222 39.1734 43.7102 38.9298 44.0662 38.536C47.1658 35.1076 46.3243 30.3313 41.5417 29.4992C41.2163 29.4425 40.8831 29.4645 40.5602 29.5341L28.2025 32.1991M28.2025 42.5456L13.9301 48.0234M13.9301 48.0234C10.2601 49.2494 6.25045 48.0234 5.97835 44.5497C5.74298 41.5449 7.40559 39.85 9.6484 39.85C11.4834 39.85 13.3184 41.0647 13.3184 43.9367C13.3184 47.206 7.81337 45.98 8.83283 43.528M26.7753 32.5069C29.2684 33.8177 30.1474 34.6402 30.1249 36.3763M26.7753 32.5069L28.2025 32.1991M30.1249 36.3763L30.1618 36.3188C30.416 35.9227 30.9664 35.8524 31.3119 36.172V36.172M31.3119 36.172C31.095 34.0023 30.378 33.154 28.2025 32.1991" stroke="#232323" stroke-width="1.83502" stroke-linecap="round" stroke-linejoin="round"/>
</svg>
