<svg width="39" height="39" viewBox="0 0 39 39" fill="none" xmlns="http://www.w3.org/2000/svg">
    <path d="M10.6028 2.61604C12.215 1.395 14.1833 0.736422 16.2058 0.741279C16.9042 0.725616 17.5954 0.886386 18.2153 1.20871C18.8351 1.53104 19.3637 2.00451 19.752 2.58531C20.1403 2.00451 20.6688 1.53104 21.2887 1.20871C21.9086 0.886386 22.5997 0.725616 23.2982 0.741279C25.3207 0.736422 27.2889 1.395 28.9012 2.61604C30.1424 3.58061 31.0998 4.91635 31.4379 6.53105C32.2134 6.59016 32.9226 6.91168 33.5184 7.39633C34.4215 8.12921 35.0787 9.22854 35.4924 10.3917C36.1402 12.2003 36.3151 14.5053 35.6437 16.4675C35.8139 16.5479 35.9818 16.6425 36.1449 16.7512C36.7951 17.1839 37.2892 17.8033 37.6532 18.5338C38.3696 19.9641 38.6651 21.9594 38.6651 24.3827C38.6651 27.0801 37.6367 28.8911 36.3317 30.0093C35.61 30.6281 34.7584 31.0765 33.8399 31.3214C33.6035 32.6406 32.9415 34.1678 31.9037 35.4634C30.5561 37.1537 28.4662 38.5675 25.6623 38.5675C23.44 38.5675 21.6717 37.3381 20.5227 36.1324C20.248 35.8446 19.9906 35.5406 19.752 35.2222C19.5133 35.5406 19.256 35.8446 18.9813 36.1324C17.8323 37.3381 16.0663 38.5675 13.8416 38.5675C11.0378 38.5675 8.95023 37.1537 7.6003 35.4634C6.63044 34.259 5.96616 32.838 5.66407 31.3214C4.74556 31.0765 3.89393 30.6281 3.17227 30.0093C1.86727 28.8911 0.838867 27.0778 0.838867 24.3827C0.838867 21.9594 1.13675 19.9617 1.85072 18.5338C2.1891 17.8174 2.7091 17.202 3.35904 16.7489C3.51871 16.6432 3.68627 16.5499 3.86024 16.4699C3.18882 14.5029 3.36377 12.2003 4.01154 10.3917C4.42527 9.22854 5.0825 8.12921 5.9856 7.39633C6.58136 6.91168 7.2906 6.59252 8.06604 6.53105C8.40648 4.91635 9.36395 3.58061 10.6051 2.61604H10.6028ZM18.5699 6.65163V6.62798L18.5652 6.50978C18.5304 5.89345 18.4078 5.28525 18.2011 4.70358C18.054 4.26446 17.8034 3.86716 17.4706 3.54515C17.1214 3.24107 16.6683 3.08354 16.2058 3.10542C14.7091 3.10029 13.2516 3.58335 12.0543 4.48135C10.9574 5.3348 10.2954 6.49086 10.2954 7.83369C10.2953 8.0209 10.2507 8.20539 10.1653 8.37198C10.0799 8.53857 9.95617 8.6825 9.80427 8.79192C9.65238 8.90134 9.47667 8.97312 9.29161 9.00135C9.10655 9.02958 8.91743 9.01345 8.73982 8.9543C8.29536 8.80772 7.89819 8.89046 7.47501 9.2309C7.01163 9.60916 6.56008 10.2806 6.2362 11.186C5.5766 13.0348 5.64516 15.2736 6.55063 16.6354C6.67994 16.8293 6.74903 17.0572 6.74921 17.2903H8.52232C9.93309 17.2903 11.2861 17.8507 12.2836 18.8482C13.2812 19.8458 13.8416 21.1988 13.8416 22.6096V23.4015C14.6303 23.6804 15.295 24.2291 15.7183 24.9506C16.1416 25.6722 16.2962 26.5201 16.1547 27.3446C16.0132 28.1691 15.5849 28.917 14.9453 29.4562C14.3057 29.9954 13.4961 30.2912 12.6596 30.2912C11.823 30.2912 11.0134 29.9954 10.3738 29.4562C9.73426 28.917 9.30588 28.1691 9.16442 27.3446C9.02296 26.5201 9.17753 25.6722 9.6008 24.9506C10.0241 24.2291 10.6888 23.6804 11.4775 23.4015V22.6096C11.4775 20.9783 10.1536 19.6544 8.52232 19.6544H4.38508C4.24375 19.6542 4.10361 19.6285 3.97135 19.5787L3.96426 19.5929C3.49616 20.5268 3.20301 22.0776 3.20301 24.3827C3.20301 26.4135 3.94771 27.5577 4.71133 28.2126C5.53168 28.9171 6.44188 29.1109 6.74921 29.1109C7.06272 29.1109 7.36338 29.2355 7.58506 29.4572C7.80674 29.6788 7.93128 29.9795 7.93128 30.293C7.93128 31.163 8.40411 32.6832 9.44433 33.9882C10.4585 35.253 11.9172 36.2034 13.8416 36.2034C15.1655 36.2034 16.3523 35.4634 17.2696 34.5012C17.7212 34.0284 18.0734 33.539 18.3028 33.1371C18.4072 32.9588 18.4965 32.7722 18.5699 32.5791V13.744H16.0048C15.726 14.5327 15.1773 15.1975 14.4557 15.6207C13.7342 16.044 12.8862 16.1986 12.0617 16.0571C11.2373 15.9156 10.4893 15.4873 9.95013 14.8477C9.41094 14.2081 9.11521 13.3985 9.11521 12.562C9.11521 11.7254 9.41094 10.9158 9.95013 10.2763C10.4893 9.63667 11.2373 9.20829 12.0617 9.06683C12.8862 8.92537 13.7342 9.07994 14.4557 9.50321C15.1773 9.92649 15.726 10.5912 16.0048 11.3799H18.5699V6.65163ZM20.934 30.2906V32.5768C21.0075 32.7698 21.0968 32.9565 21.2012 33.1347C21.4329 33.5366 21.7828 34.026 22.232 34.4988C23.1516 35.461 24.3408 36.201 25.6623 36.201C27.5867 36.201 29.0454 35.2506 30.0596 33.9858C31.0998 32.6808 31.5727 31.1607 31.5727 30.2906C31.5727 29.9771 31.6972 29.6765 31.9189 29.4548C32.1406 29.2331 32.4412 29.1086 32.7547 29.1086C33.0621 29.1086 33.9723 28.9147 34.7926 28.2102C35.5562 27.5553 36.3009 26.4111 36.3009 24.3803C36.3009 22.0753 36.0054 20.5268 35.5397 19.5906C35.3839 19.2419 35.1393 18.9403 34.8305 18.7158C34.5643 18.5457 34.2525 18.4607 33.9368 18.4723C33.723 18.4722 33.5132 18.4141 33.3298 18.3042C33.1464 18.1943 32.9962 18.0367 32.8953 17.8482C32.7944 17.6597 32.7465 17.4473 32.7567 17.2338C32.7669 17.0202 32.8349 16.8134 32.9533 16.6354C33.8612 15.2736 33.9274 13.0348 33.2678 11.186C32.9439 10.2806 32.4923 9.6068 32.0289 9.2309C31.6058 8.89046 31.2086 8.80536 30.7641 8.9543C30.5865 9.01345 30.3974 9.02958 30.2123 9.00135C30.0273 8.97312 29.8516 8.90134 29.6997 8.79192C29.5478 8.6825 29.4241 8.53857 29.3387 8.37198C29.2533 8.20539 29.2087 8.0209 29.2085 7.83369C29.2085 6.49086 28.5466 5.3348 27.4473 4.48135C26.2506 3.58384 24.794 3.1008 23.2982 3.10542C22.8357 3.08354 22.3826 3.24107 22.0334 3.54515C21.6995 3.86678 21.4481 4.26415 21.3005 4.70358C21.0754 5.3211 20.9517 5.97096 20.934 6.62798V27.9289H22.7072C24.3384 27.9289 25.6623 26.605 25.6623 24.9737V20.6355C24.8736 20.3567 24.2089 19.808 23.7856 19.0864C23.3624 18.3649 23.2078 17.5169 23.3493 16.6924C23.4907 15.868 23.9191 15.12 24.5587 14.5808C25.1983 14.0416 26.0079 13.7459 26.8444 13.7459C27.6809 13.7459 28.4905 14.0416 29.1301 14.5808C29.7697 15.12 30.1981 15.868 30.3395 16.6924C30.481 17.5169 30.3264 18.3649 29.9032 19.0864C29.4799 19.808 28.8152 20.3567 28.0265 20.6355V24.9737C28.0265 26.3845 27.466 27.7375 26.4685 28.735C25.4709 29.7326 24.1179 30.293 22.7072 30.293H20.934V30.2906ZM11.4775 12.562C11.4775 12.8755 11.602 13.1761 11.8237 13.3978C12.0454 13.6195 12.3461 13.744 12.6596 13.744C12.9731 13.744 13.2737 13.6195 13.4954 13.3978C13.7171 13.1761 13.8416 12.8755 13.8416 12.562C13.8416 12.2485 13.7171 11.9478 13.4954 11.7261C13.2737 11.5044 12.9731 11.3799 12.6596 11.3799C12.3461 11.3799 12.0454 11.5044 11.8237 11.7261C11.602 11.9478 11.4775 12.2485 11.4775 12.562ZM26.8444 18.4723C27.1579 18.4723 27.4586 18.3478 27.6802 18.1261C27.9019 17.9044 28.0265 17.6038 28.0265 17.2903C28.0265 16.9767 27.9019 16.6761 27.6802 16.4544C27.4586 16.2327 27.1579 16.1082 26.8444 16.1082C26.5309 16.1082 26.2302 16.2327 26.0085 16.4544C25.7869 16.6761 25.6623 16.9767 25.6623 17.2903C25.6623 17.6038 25.7869 17.9044 26.0085 18.1261C26.2302 18.3478 26.5309 18.4723 26.8444 18.4723ZM12.6596 25.5647C12.3461 25.5647 12.0454 25.6893 11.8237 25.911C11.602 26.1326 11.4775 26.4333 11.4775 26.7468C11.4775 27.0603 11.602 27.361 11.8237 27.5827C12.0454 27.8043 12.3461 27.9289 12.6596 27.9289C12.9731 27.9289 13.2737 27.8043 13.4954 27.5827C13.7171 27.361 13.8416 27.0603 13.8416 26.7468C13.8416 26.4333 13.7171 26.1326 13.4954 25.911C13.2737 25.6893 12.9731 25.5647 12.6596 25.5647Z" fill="#232323"/>
</svg>
