<svg width="40" height="41" viewBox="0 0 40 41" fill="none" xmlns="http://www.w3.org/2000/svg">
    <path d="M16.762 23.6348H23.3291V20.3512H16.762V23.6348ZM16.762 18.7095H29.8961V15.4259H16.762V18.7095ZM16.762 13.7842H29.8961V10.5006H16.762V13.7842ZM13.4785 30.2018C12.5755 30.2018 11.8028 29.8806 11.1603 29.2381C10.5168 28.5945 10.195 27.8212 10.195 26.9183V7.21712C10.195 6.31415 10.5168 5.54088 11.1603 4.89731C11.8028 4.25483 12.5755 3.93359 13.4785 3.93359H33.1797C34.0826 3.93359 34.8559 4.25483 35.4995 4.89731C36.142 5.54088 36.4632 6.31415 36.4632 7.21712V26.9183C36.4632 27.8212 36.142 28.5945 35.4995 29.2381C34.8559 29.8806 34.0826 30.2018 33.1797 30.2018H13.4785ZM13.4785 26.9183H33.1797V7.21712H13.4785V26.9183ZM6.91146 36.7689C6.00849 36.7689 5.23576 36.4476 4.59329 35.8051C3.94972 35.1616 3.62793 34.3883 3.62793 33.4853V10.5006H6.91146V33.4853H29.8961V36.7689H6.91146ZM13.4785 7.21712V26.9183V7.21712Z" fill="#3C5B73"/>
</svg>
