<svg width="33" height="29" viewBox="0 0 33 29" fill="none" xmlns="http://www.w3.org/2000/svg">
    <path d="M30.04 0.488281H2.95093C2.29779 0.488281 1.67141 0.752783 1.20957 1.2236C0.747738 1.69441 0.488281 2.33298 0.488281 2.99881V25.5936C0.488281 26.2594 0.747738 26.898 1.20957 27.3688C1.67141 27.8396 2.29779 28.1041 2.95093 28.1041H5.01339C5.24655 28.1048 5.47498 28.0371 5.67146 27.9091C5.86794 27.7811 6.02419 27.5983 6.12158 27.3823C6.72405 26.097 7.67107 25.0117 8.85315 24.2519C10.0352 23.4921 11.4041 23.089 12.8015 23.089C14.1989 23.089 15.5678 23.4921 16.7499 24.2519C17.9319 25.0117 18.879 26.097 19.4814 27.3823C19.5788 27.5983 19.7351 27.7811 19.9316 27.9091C20.128 28.0371 20.3565 28.1048 20.5896 28.1041H30.04C30.6932 28.1041 31.3195 27.8396 31.7814 27.3688C32.2432 26.898 32.5027 26.2594 32.5027 25.5936V2.99881C32.5027 2.33298 32.2432 1.69441 31.7814 1.2236C31.3195 0.752783 30.6932 0.488281 30.04 0.488281ZM9.10754 16.8067C9.10754 16.0619 9.32419 15.3338 9.73008 14.7146C10.136 14.0953 10.7129 13.6126 11.3879 13.3276C12.0629 13.0426 12.8056 12.968 13.5222 13.1133C14.2387 13.2586 14.8969 13.6172 15.4135 14.1439C15.9301 14.6706 16.282 15.3416 16.4245 16.0721C16.567 16.8025 16.4939 17.5597 16.2143 18.2478C15.9347 18.9359 15.4612 19.5241 14.8538 19.9379C14.2463 20.3517 13.5321 20.5725 12.8015 20.5725C11.8231 20.5684 10.8858 20.1703 10.194 19.465C9.50208 18.7596 9.11159 17.8042 9.10754 16.8067ZM30.04 25.5936H21.3284C20.3007 23.7911 18.7528 22.3556 16.8957 21.4826C17.8277 20.6365 18.4856 19.5216 18.782 18.2857C19.0784 17.0498 18.9993 15.7512 18.5553 14.5622C18.1113 13.3731 17.3232 12.3497 16.2957 11.6276C15.2681 10.9055 14.0495 10.5188 12.8015 10.5188C11.5535 10.5188 10.3349 10.9055 9.30733 11.6276C8.27977 12.3497 7.49174 13.3731 7.04772 14.5622C6.60369 15.7512 6.52464 17.0498 6.82103 18.2857C7.11742 19.5216 7.77527 20.6365 8.70736 21.4826C6.85022 22.3556 5.30231 23.7911 4.2746 25.5936H2.95093V2.99881H30.04V25.5936ZM5.41357 9.27513V6.76461C5.41357 6.43169 5.5433 6.11241 5.77422 5.877C6.00513 5.64159 6.31833 5.50934 6.64489 5.50934H26.3461C26.6726 5.50934 26.9858 5.64159 27.2167 5.877C27.4476 6.11241 27.5774 6.43169 27.5774 6.76461V21.8278C27.5774 22.1607 27.4476 22.48 27.2167 22.7154C26.9858 22.9508 26.6726 23.083 26.3461 23.083H23.8834C23.5568 23.083 23.2436 22.9508 23.0127 22.7154C22.7818 22.48 22.6521 22.1607 22.6521 21.8278C22.6521 21.4949 22.7818 21.1756 23.0127 20.9402C23.2436 20.7048 23.5568 20.5725 23.8834 20.5725H25.1147V8.01987H7.87622V9.27513C7.87622 9.60805 7.74649 9.92733 7.51557 10.1627C7.28465 10.3981 6.97146 10.5304 6.64489 10.5304C6.31833 10.5304 6.00513 10.3981 5.77422 10.1627C5.5433 9.92733 5.41357 9.60805 5.41357 9.27513Z" fill="#679867"/>
</svg>
