<svg width="32" height="32" viewBox="0 0 32 32" fill="none" xmlns="http://www.w3.org/2000/svg">
<g clip-path="url(#clip0_54_1382)">
<path d="M7.09188 19.3378L5.978 23.4961L1.90681 23.5822C0.690125 21.3255 0 18.7436 0 15.9999C0 13.3467 0.64525 10.8447 1.789 8.6416H1.78988L5.41437 9.3061L7.00212 12.9089C6.66981 13.8777 6.48869 14.9177 6.48869 15.9999C6.48881 17.1744 6.70156 18.2997 7.09188 19.3378Z" fill="#FBBB00"/>
<path d="M31.7205 13.011C31.9042 13.9789 32.0001 14.9784 32.0001 16C32.0001 17.1455 31.8796 18.2629 31.6502 19.3407C30.8713 23.0084 28.8361 26.211 26.0168 28.4774L26.0159 28.4765L21.4507 28.2436L20.8046 24.2101C22.6753 23.113 24.1373 21.396 24.9074 19.3407H16.3518V13.011H25.0322H31.7205Z" fill="#518EF8"/>
<path d="M26.016 28.4763L26.0169 28.4772C23.2749 30.6811 19.7918 31.9998 16.0002 31.9998C9.90698 31.9998 4.60942 28.5941 1.90698 23.5823L7.09204 19.3379C8.44323 22.944 11.9219 25.5111 16.0002 25.5111C17.7531 25.5111 19.3954 25.0372 20.8045 24.21L26.016 28.4763Z" fill="#28B446"/>
<path d="M26.2129 3.6835L21.0296 7.927C19.5712 7.01538 17.8472 6.48875 16.0002 6.48875C11.8296 6.48875 8.28587 9.17356 7.00237 12.909L1.79006 8.64175H1.78918C4.45206 3.50769 9.81643 0 16.0002 0C19.8824 0 23.4419 1.38287 26.2129 3.6835Z" fill="#F14336"/>
</g>
<defs>
<clipPath id="clip0_54_1382">
<rect width="32" height="32" fill="white"/>
</clipPath>
</defs>
</svg>
