<svg width="30" height="30" viewBox="0 0 30 30" fill="none" xmlns="http://www.w3.org/2000/svg">
<path fill-rule="evenodd" clip-rule="evenodd" d="M20.3332 10.9998C20.3332 12.4143 19.7713 13.7709 18.7711 14.7711C17.7709 15.7713 16.4143 16.3332 14.9998 16.3332C13.5853 16.3332 12.2288 15.7713 11.2286 14.7711C10.2284 13.7709 9.6665 12.4143 9.6665 10.9998C9.6665 9.58535 10.2284 8.22879 11.2286 7.2286C12.2288 6.22841 13.5853 5.6665 14.9998 5.6665C16.4143 5.6665 17.7709 6.22841 18.7711 7.2286C19.7713 8.22879 20.3332 9.58535 20.3332 10.9998ZM17.6665 10.9998C17.6665 11.7071 17.3856 12.3854 16.8855 12.8855C16.3854 13.3856 15.7071 13.6665 14.9998 13.6665C14.2926 13.6665 13.6143 13.3856 13.1142 12.8855C12.6141 12.3854 12.3332 11.7071 12.3332 10.9998C12.3332 10.2926 12.6141 9.61432 13.1142 9.11422C13.6143 8.61412 14.2926 8.33317 14.9998 8.33317C15.7071 8.33317 16.3854 8.61412 16.8855 9.11422C17.3856 9.61432 17.6665 10.2926 17.6665 10.9998Z" fill="black"/>
<path fill-rule="evenodd" clip-rule="evenodd" d="M14.9999 0.333252C6.89992 0.333252 0.333252 6.89992 0.333252 14.9999C0.333252 23.0999 6.89992 29.6666 14.9999 29.6666C23.0999 29.6666 29.6666 23.0999 29.6666 14.9999C29.6666 6.89992 23.0999 0.333252 14.9999 0.333252ZM2.99992 14.9999C2.99992 17.7866 3.95059 20.3519 5.54392 22.3893C6.66289 20.9198 8.10645 19.7289 9.76183 18.9097C11.4172 18.0904 13.2396 17.665 15.0866 17.6666C16.9097 17.6649 18.7091 18.0793 20.3478 18.8783C21.9865 19.6773 23.4212 20.8398 24.5426 22.2773C25.6978 20.7621 26.4757 18.9935 26.8118 17.118C27.1479 15.2425 27.0325 13.314 26.4752 11.4919C25.918 9.66983 24.9349 8.00665 23.6072 6.63997C22.2796 5.27329 20.6456 4.2424 18.8404 3.6326C17.0353 3.0228 15.1109 2.85161 13.2264 3.13322C11.3419 3.41482 9.55164 4.14111 8.00361 5.25199C6.45558 6.36287 5.19433 7.82641 4.32422 9.52151C3.45412 11.2166 3.00016 13.0945 2.99992 14.9999ZM14.9999 26.9999C12.2452 27.0041 9.57361 26.0564 7.43725 24.3173C8.29716 23.0862 9.4417 22.0811 10.7735 21.3875C12.1053 20.6939 13.585 20.3322 15.0866 20.3333C16.5695 20.3321 18.0312 20.6847 19.3505 21.3618C20.6697 22.039 21.8084 23.0211 22.6719 24.2266C20.519 26.0222 17.8034 27.0039 14.9999 26.9999Z" fill="black"/>
</svg>
