<svg width="48" height="48" viewBox="0 0 48 48" fill="none" xmlns="http://www.w3.org/2000/svg">
<path d="M5.14258 9.85686C5.14258 8.60656 5.63926 7.40746 6.52336 6.52336C7.40746 5.63926 8.60656 5.14258 9.85686 5.14258H38.1426C39.3929 5.14258 40.592 5.63926 41.4761 6.52336C42.3602 7.40746 42.8569 8.60656 42.8569 9.85686V24.8569C42.0609 24.2582 41.1979 23.7542 40.2854 23.3551V9.85686C40.2854 8.67401 39.3254 7.71401 38.1426 7.71401H9.85686C8.67401 7.71401 7.71401 8.67401 7.71401 9.85686V38.1426C7.71401 39.3254 8.67401 40.2854 9.85686 40.2854H23.3551C23.7563 41.2026 24.262 42.0649 24.8551 42.8569H9.85686C8.60656 42.8569 7.40746 42.3602 6.52336 41.4761C5.63926 40.592 5.14258 39.3929 5.14258 38.1426V9.85686ZM11.5711 27.4249H24.8569C24.2589 28.221 23.7555 29.0839 23.3569 29.9963H11.5711C11.2302 29.9963 10.9031 29.8608 10.662 29.6197C10.4209 29.3786 10.2854 29.0516 10.2854 28.7106C10.2854 28.3696 10.4209 28.0426 10.662 27.8014C10.9031 27.5603 11.2302 27.4249 11.5711 27.4249ZM10.2854 35.5729C10.2854 35.2319 10.4209 34.9048 10.662 34.6637C10.9031 34.4226 11.2302 34.2871 11.5711 34.2871H21.0031C21.3441 34.2871 21.6712 34.4226 21.9123 34.6637C22.1534 34.9048 22.2889 35.2319 22.2889 35.5729C22.2889 35.9139 22.1534 36.2409 21.9123 36.482C21.6712 36.7231 21.3441 36.8586 21.0031 36.8586H11.5711C11.2302 36.8586 10.9031 36.7231 10.662 36.482C10.4209 36.2409 10.2854 35.9139 10.2854 35.5729ZM19.7174 10.2854C19.9699 10.2857 20.2167 10.3603 20.4271 10.4999C20.6374 10.6396 20.802 10.838 20.9003 11.0706L25.6129 22.2186C25.6803 22.3744 25.7162 22.5421 25.7184 22.7119C25.7207 22.8818 25.6893 23.0503 25.6261 23.2079C25.5628 23.3656 25.469 23.5091 25.3499 23.6302C25.2309 23.7513 25.0891 23.8477 24.9326 23.9137C24.7761 23.9797 24.6081 24.0141 24.4383 24.0148C24.2685 24.0155 24.1002 23.9826 23.9431 23.9179C23.7861 23.8532 23.6435 23.7581 23.5234 23.6379C23.4034 23.5178 23.3083 23.3751 23.2437 23.218L22.4894 21.4317H16.9386L16.1826 23.2197C16.1167 23.3753 16.0209 23.5163 15.9005 23.6349C15.7802 23.7534 15.6376 23.847 15.4811 23.9105C15.3245 23.9739 15.157 24.0059 14.9881 24.0046C14.8191 24.0033 14.6521 23.9687 14.4966 23.9029C14.341 23.837 14.2 23.7412 14.0814 23.6208C13.9629 23.5004 13.8693 23.3579 13.8058 23.2013C13.7424 23.0448 13.7104 22.8773 13.7117 22.7083C13.713 22.5394 13.7476 22.3724 13.8134 22.2169L18.5312 11.0689C18.6297 10.8366 18.7944 10.6385 19.0047 10.4992C19.2151 10.3599 19.4617 10.2856 19.714 10.2854H19.7174ZM18.0289 18.8603H21.4009L19.7157 14.8712L18.0289 18.8603ZM30.4283 10.2854C30.7693 10.2854 31.0963 10.4209 31.3374 10.662C31.5785 10.9031 31.714 11.2302 31.714 11.5711V13.714H33.8569C34.1979 13.714 34.5249 13.8495 34.766 14.0906C35.0071 14.3317 35.1426 14.6587 35.1426 14.9997C35.1426 15.3407 35.0071 15.6677 34.766 15.9089C34.5249 16.15 34.1979 16.2854 33.8569 16.2854H31.714V18.4249C31.714 18.7659 31.5785 19.0929 31.3374 19.334C31.0963 19.5751 30.7693 19.7106 30.4283 19.7106C30.0873 19.7106 29.7603 19.5751 29.5192 19.334C29.278 19.0929 29.1426 18.7659 29.1426 18.4249V16.2854H27.0031C26.6622 16.2854 26.3351 16.15 26.094 15.9089C25.8529 15.6677 25.7174 15.3407 25.7174 14.9997C25.7174 14.6587 25.8529 14.3317 26.094 14.0906C26.3351 13.8495 26.6622 13.714 27.0031 13.714H29.1426V11.5711C29.1426 11.2302 29.278 10.9031 29.5192 10.662C29.7603 10.4209 30.0873 10.2854 30.4283 10.2854ZM46.2854 35.1426C46.2854 38.0978 45.1115 40.9321 43.0218 43.0218C40.9321 45.1115 38.0978 46.2854 35.1426 46.2854C32.1873 46.2854 29.3531 45.1115 27.2634 43.0218C25.1737 40.9321 23.9997 38.0978 23.9997 35.1426C23.9997 32.1873 25.1737 29.3531 27.2634 27.2634C29.3531 25.1737 32.1873 23.9997 35.1426 23.9997C38.0978 23.9997 40.9321 25.1737 43.0218 27.2634C45.1115 29.3531 46.2854 32.1873 46.2854 35.1426ZM35.9997 28.2854C35.9997 28.0581 35.9094 27.8401 35.7487 27.6793C35.5879 27.5186 35.3699 27.4283 35.1426 27.4283C34.9153 27.4283 34.6972 27.5186 34.5365 27.6793C34.3757 27.8401 34.2854 28.0581 34.2854 28.2854V34.2854H28.2854C28.0581 34.2854 27.8401 34.3757 27.6793 34.5365C27.5186 34.6972 27.4283 34.9153 27.4283 35.1426C27.4283 35.3699 27.5186 35.5879 27.6793 35.7487C27.8401 35.9094 28.0581 35.9997 28.2854 35.9997H34.2854V41.9997C34.2854 42.2271 34.3757 42.4451 34.5365 42.6058C34.6972 42.7666 34.9153 42.8569 35.1426 42.8569C35.3699 42.8569 35.5879 42.7666 35.7487 42.6058C35.9094 42.4451 35.9997 42.2271 35.9997 41.9997V35.9997H41.9997C42.2271 35.9997 42.4451 35.9094 42.6058 35.7487C42.7666 35.5879 42.8569 35.3699 42.8569 35.1426C42.8569 34.9153 42.7666 34.6972 42.6058 34.5365C42.4451 34.3757 42.2271 34.2854 41.9997 34.2854H35.9997V28.2854Z" fill="#4A4A4A"/>
</svg>
