<svg width="111" height="111" viewBox="0 0 111 111" fill="none" xmlns="http://www.w3.org/2000/svg">
<path d="M111 55.5C111 86.1514 86.1514 111 55.5 111C24.8517 111 0 86.1514 0 55.5C0 24.8517 24.8517 0 55.5 0C86.1514 0 111 24.8517 111 55.5Z" fill="#FFCC4D"/>
<path d="M87.7445 54.8728C87.5595 54.4565 83.1225 44.707 74.002 44.707C64.8846 44.707 60.4446 54.4565 60.2596 54.8728C59.976 55.511 60.161 56.2572 60.7067 56.695C61.2463 57.1329 62.0202 57.1483 62.5875 56.7382C62.6245 56.7104 66.4787 53.957 74.002 53.957C81.4822 53.957 85.3302 56.6734 85.4165 56.7351C85.6879 56.9386 86.0147 57.0404 86.3354 57.0404C86.6745 57.0404 87.0168 56.9263 87.2974 56.7043C87.8431 56.2664 88.0312 55.5141 87.7445 54.8728ZM53.8278 54.8728C53.6428 54.4565 49.2059 44.707 40.0854 44.707C30.968 44.707 26.528 54.4565 26.343 54.8728C26.0593 55.511 26.2443 56.2572 26.787 56.695C27.3296 57.1329 28.1035 57.1483 28.6678 56.7382C28.7079 56.7104 32.559 53.957 40.0854 53.957C47.5655 53.957 51.4135 56.6734 51.4999 56.7351C51.7743 56.9386 52.098 57.0404 52.4187 57.0404C52.7579 57.0404 53.1001 56.9263 53.3807 56.7043C53.9295 56.2664 54.1115 55.5141 53.8278 54.8728ZM40.0854 86.332C40.0854 86.332 43.1687 73.9987 55.502 73.9987C67.8354 73.9987 70.9187 86.332 70.9187 86.332C70.9187 86.332 67.8354 83.2487 55.502 83.2487C43.1687 83.2487 40.0854 86.332 40.0854 86.332Z" fill="#664500"/>
<path d="M33.9115 33.9154C33.9115 42.4315 27.011 49.332 18.4948 49.332C9.98171 49.332 3.07812 42.4315 3.07812 33.9154C3.07812 25.3992 15.4115 3.08203 18.4948 3.08203C21.5781 3.08203 33.9115 25.3992 33.9115 33.9154Z" fill="#5DADEC"/>
</svg>
