<svg width="50" height="46" viewBox="0 0 50 46" fill="none" xmlns="http://www.w3.org/2000/svg">
<path d="M10.5589 3.47447C10.9877 1.87407 12.6327 0.924328 14.2331 1.35315L19.0627 2.64725C20.6631 3.07607 21.6129 4.72109 21.1841 6.32148L11.4783 42.5437C11.0495 44.1441 9.4045 45.0938 7.8041 44.665L2.97447 43.3709C1.37408 42.9421 0.424328 41.2971 0.853153 39.6967L10.5589 3.47447Z" stroke="#9E9E9E" stroke-width="1.5"/>
<path d="M23.25 4.25C23.25 2.59315 24.5931 1.25 26.25 1.25H31.25C32.9069 1.25 34.25 2.59315 34.25 4.25V41.75C34.25 43.4069 32.9069 44.75 31.25 44.75H26.25C24.5931 44.75 23.25 43.4069 23.25 41.75V4.25Z" stroke="#9E9E9E" stroke-width="1.5"/>
<path d="M38.25 4.25C38.25 2.59315 39.5931 1.25 41.25 1.25H46.25C47.9069 1.25 49.25 2.59315 49.25 4.25V41.75C49.25 43.4069 47.9069 44.75 46.25 44.75H41.25C39.5931 44.75 38.25 43.4069 38.25 41.75V4.25Z" stroke="#9E9E9E" stroke-width="1.5"/>
</svg>
