<svg width="26" height="22" viewBox="0 0 26 22" fill="none" xmlns="http://www.w3.org/2000/svg">
<path d="M4.66927 21V2.75333C4.66915 2.36554 4.79785 1.98869 5.03514 1.68198C5.27243 1.37526 5.60487 1.15604 5.98027 1.05876C6.35566 0.961481 6.75273 0.991643 7.10912 1.14451C7.46551 1.29738 7.76103 1.56429 7.94927 1.90333L18.0559 20.0967C18.2442 20.4357 18.5397 20.7026 18.8961 20.8555C19.2525 21.0084 19.6496 21.0385 20.0249 20.9412C20.4003 20.844 20.7328 20.6247 20.9701 20.318C21.2074 20.0113 21.3361 19.6345 21.3359 19.2467V1M1.33594 7.66667H24.6693M1.33594 14.3333H24.6693" stroke="#232323" stroke-width="2" stroke-linecap="round" stroke-linejoin="round"/>
</svg>
