<svg width="153" height="85" viewBox="0 0 153 85" fill="none" xmlns="http://www.w3.org/2000/svg">
<g clip-path="url(#clip0_120_335)">
<path d="M50.5349 64.6592C51.2702 65.5824 51.6378 66.8636 51.6378 68.5058V70.8445C51.6378 72.5678 51.234 73.8491 50.4262 74.6911C49.6185 75.5332 48.368 75.9528 46.6718 75.9528H44.0063V84.8154H42.597V63.2744H47.0394C48.6326 63.2744 49.7968 63.736 50.5321 64.6592H50.5349ZM49.3874 73.7847C49.95 73.2 50.2285 72.2517 50.2285 70.9368V68.4135C50.2285 67.163 49.9834 66.209 49.4932 65.5516C49.003 64.8942 48.1869 64.5669 47.0422 64.5669H44.0091V74.6603H46.6746C47.9196 74.6603 48.8247 74.3694 49.3874 73.7847Z" fill="#232323"/>
<path d="M63.5891 84.8126H62.3024L66.9899 63.2408H69.0426L73.822 84.8126H72.4127L71.3404 80.0428H64.6614L63.5891 84.8126ZM71.1259 78.8119L67.9703 64.8718L64.8759 78.8119H71.1259Z" fill="#232323"/>
<path d="M93.182 64.5809C93.9368 65.5768 94.3156 66.8944 94.3156 68.5338V70.1339H92.9676V68.4414C92.9676 67.2105 92.7058 66.2258 92.1849 65.4873C91.6641 64.7487 90.8424 64.3794 89.72 64.3794C88.5976 64.3794 87.7731 64.7487 87.2523 65.4873C86.7315 66.2258 86.4725 67.2105 86.4725 68.4414V79.6427C86.4725 80.8736 86.7343 81.8528 87.2523 82.5829C87.7731 83.3103 88.5948 83.674 89.72 83.674C90.8452 83.674 91.6669 83.3103 92.1849 82.5829C92.7058 81.8556 92.9676 80.8736 92.9676 79.6427V74.996H90.1183V73.7036H94.3156V79.5504C94.3156 81.1926 93.9368 82.5102 93.182 83.5033C92.4272 84.4992 91.263 84.9944 89.6894 84.9944C88.1157 84.9944 86.9515 84.4964 86.1967 83.5033C85.4419 82.5074 85.0631 81.1898 85.0631 79.5504V68.5338C85.0631 66.8916 85.4419 65.574 86.1967 64.5809C86.9515 63.5849 88.1157 63.0898 89.6894 63.0898C91.263 63.0898 92.4272 63.5877 93.182 64.5809Z" fill="#232323"/>
<path d="M113.127 74.5344H107.275V83.5201H114.322V84.8126H105.866V63.2716H114.322V64.5641H107.275V73.242H113.127V74.5344Z" fill="#232323"/>
<path d="M133.732 64.5501C134.478 65.5236 134.849 66.8329 134.849 68.4722V68.9338H133.501V68.3799C133.501 67.149 133.245 66.1755 132.735 65.4565C132.225 64.7375 131.417 64.3794 130.314 64.3794C129.212 64.3794 128.404 64.7375 127.894 65.4565C127.384 66.1755 127.128 67.1378 127.128 68.3491C127.128 69.1296 127.293 69.8206 127.618 70.4249C127.944 71.0292 128.348 71.5523 128.83 71.9943C129.309 72.4363 129.969 72.965 130.805 73.5805C131.682 74.2155 132.398 74.7806 132.949 75.273C133.501 75.7654 133.96 76.3696 134.328 77.0886C134.696 77.8076 134.879 78.6468 134.879 79.612C134.879 81.2541 134.501 82.5606 133.746 83.5341C132.991 84.5076 131.827 84.9972 130.253 84.9972C128.68 84.9972 127.515 84.5104 126.761 83.5341C126.006 82.5606 125.627 81.2513 125.627 79.612V78.5041H126.975V79.7043C126.975 80.9352 127.234 81.9059 127.755 82.6109C128.276 83.3187 129.097 83.6712 130.223 83.6712C131.348 83.6712 132.167 83.3187 132.687 82.6109C133.208 81.9031 133.47 80.9324 133.47 79.7043C133.47 78.9238 133.306 78.2384 132.98 77.6425C132.654 77.0466 132.25 76.5291 131.771 76.0899C131.292 75.6479 130.643 75.1303 129.824 74.5345C128.947 73.8994 128.231 73.3287 127.68 72.828C127.128 72.3244 126.663 71.709 126.287 70.9816C125.908 70.2542 125.719 69.4066 125.719 68.4442C125.719 66.7825 126.098 65.4789 126.852 64.5361C127.607 63.5933 128.752 63.1094 130.284 63.0898C131.835 63.0898 132.985 63.5766 133.732 64.5529V64.5501Z" fill="#232323"/>
<path d="M70.541 43.8037C67.0177 53.8943 57.4895 60.6727 46.8305 60.6727C40.7838 60.6727 34.9432 58.4851 30.3811 54.5126C25.8635 50.5821 22.8861 45.1661 21.9948 39.2633L21.8416 38.2646H30.0441L30.1694 38.9807C31.5174 46.6348 38.5222 52.1906 46.8305 52.1906C52.8327 52.1906 58.2415 49.3036 61.2858 44.5702H46.0702C44.3405 44.5702 42.934 43.1574 42.934 41.4174C42.934 39.6773 44.3405 38.2674 46.0702 38.2674H66.6724C68.0176 38.2674 69.2375 38.9024 70.0174 39.999C70.7945 41.1012 70.9894 42.5224 70.541 43.8037Z" fill="#5A0C91"/>
<path d="M46.8305 7.32952C34.2414 7.32952 23.7996 16.7432 22.1174 28.9292H21.7163C20.0257 28.9292 18.6498 30.3112 18.6498 32.0093V32.0708C18.6498 33.7689 20.0257 35.1509 21.7163 35.1509H71.6886C71.7638 34.3256 71.7916 33.4948 71.7777 32.6639V32.6555C71.7777 32.6359 71.7805 32.6136 71.7777 32.594C71.7832 32.5268 71.7833 32.4625 71.7833 32.3897C71.7833 18.57 60.5895 7.32672 46.8278 7.32672L46.8305 7.32952ZM46.8305 15.8983C54.6737 15.8983 61.2412 21.5018 62.7703 28.9292H30.8936C32.4226 21.5018 38.9846 15.8983 46.8278 15.8983H46.8305Z" fill="#232323"/>
<path d="M0 0.383252C0 0.383252 23.1479 -1.25889 22.7412 21.0318C22.7412 21.0318 18.9561 11.5146 9.83179 9.73538C9.83179 9.73538 20.0173 13.5092 21.7609 22.0697C21.811 22.3214 20.4657 22.8893 20.3181 22.9481C18.7974 23.5496 17.0901 23.4544 15.5331 23.0488C10.7871 21.8095 6.60652 18.0468 4.14996 13.8757C2.81306 11.6041 2.59582 9.47241 2.23652 6.91827C2.06941 5.72373 1.7129 4.56835 1.29234 3.44374C1.17257 3.12762 0.19775 0.369264 0 0.383252Z" fill="#5A0C91"/>
<path d="M27.5458 0C27.5458 0 17.9981 5.73772 24.2536 14.3905C24.2536 14.3905 23.1396 9.6039 26.2395 6.38955C26.2395 6.38955 23.2677 10.681 24.9221 14.5275C24.9694 14.6395 25.6546 14.494 25.7298 14.4744C26.493 14.2926 27.1363 13.7834 27.6377 13.1931C29.164 11.3971 29.7795 8.76465 29.604 6.4483C29.5093 5.18661 29.0108 4.28861 28.4537 3.18638C28.1947 2.67164 28.0165 2.11773 27.8744 1.56102C27.8354 1.40436 27.4622 0.0503555 27.5458 0V0Z" fill="#EFA30C"/>
<path d="M82.8823 18.8609V34.4655L100.502 16.0074C101.348 15.1178 102.067 14.4604 102.663 14.0352C103.256 13.61 104.047 13.3973 105.036 13.3973C106.325 13.3973 107.367 13.7778 108.164 14.5359C108.96 15.2941 109.359 16.22 109.359 17.3139C109.359 18.6287 108.685 19.9352 107.334 21.2304L96.424 31.612L108.996 49.7064C109.882 50.9625 110.548 52.0591 110.991 52.9991C111.434 53.9391 111.656 54.8567 111.656 55.7463C111.656 56.7394 111.269 57.5982 110.492 58.3256C109.715 59.0529 108.665 59.4194 107.334 59.4194C106.083 59.4194 105.067 59.1509 104.281 58.6137C103.496 58.0766 102.83 57.3632 102.287 56.4736C101.744 55.584 101.259 54.7727 100.836 54.0454L90.2269 37.6519L82.8823 44.724V53.9223C82.8823 55.7854 82.459 57.1646 81.6123 58.0654C80.7655 58.9662 79.6765 59.4166 78.348 59.4166C77.5821 59.4166 76.8468 59.2152 76.1421 58.8096C75.4374 58.4039 74.8915 57.8584 74.51 57.1702C74.2287 56.6051 74.056 55.9449 73.9975 55.198C73.9362 54.4482 73.9056 53.3656 73.9056 51.95V18.8609C73.9056 17.0397 74.3039 15.6745 75.1004 14.7625C75.897 13.8505 76.9804 13.3973 78.3508 13.3973C79.7211 13.3973 80.7934 13.8477 81.629 14.7485C82.4645 15.6493 82.8823 17.0201 82.8823 18.8609Z" fill="#232323"/>
<path d="M130.303 13.0672C117.77 13.0672 107.607 23.2726 107.607 35.8643C107.607 48.4559 117.767 58.6613 130.303 58.6613C142.84 58.6613 153 48.4559 153 35.8643C153 23.2726 142.84 13.0672 130.303 13.0672ZM130.303 50.3694C122.329 50.3694 115.859 43.8736 115.859 35.8615C115.859 27.8494 122.326 21.3535 130.303 21.3535C138.28 21.3535 144.747 27.8494 144.747 35.8615C144.747 43.8736 138.28 50.3694 130.303 50.3694Z" fill="#EFA30C"/>
</g>
<defs>
<clipPath id="clip0_120_335">
<rect width="153" height="85" fill="white"/>
</clipPath>
</defs>
</svg>
