<svg width="21" height="22" viewBox="0 0 21 22" fill="none" xmlns="http://www.w3.org/2000/svg">
<path d="M14.5385 9.30769C14.5385 7.67708 13.9853 6.28225 12.8789 5.1232C11.7725 3.96414 10.4411 3.38462 8.88461 3.38462C7.32812 3.38462 5.99669 3.96414 4.89032 5.1232C3.78395 6.28225 3.23077 7.67708 3.23077 9.30769C3.23077 10.9383 3.78395 12.3331 4.89032 13.4922C5.99669 14.6512 7.32812 15.2308 8.88461 15.2308C10.4411 15.2308 11.7725 14.6512 12.8789 13.4922C13.9853 12.3331 14.5385 10.9383 14.5385 9.30769ZM21 20.3077C21 20.766 20.8401 21.1627 20.5204 21.4976C20.2007 21.8325 19.8221 22 19.3846 22C18.9303 22 18.5517 21.8325 18.2488 21.4976L13.9201 16.976C12.4141 18.0689 10.7356 18.6154 8.88461 18.6154C7.68149 18.6154 6.53095 18.3708 5.43299 17.8816C4.33504 17.3924 3.38852 16.7314 2.59345 15.8984C1.79838 15.0655 1.16737 14.0739 0.700421 12.9237C0.233474 11.7734 0 10.5681 0 9.30769C0 8.04728 0.233474 6.84195 0.700421 5.69171C1.16737 4.54147 1.79838 3.54988 2.59345 2.71695C3.38852 1.88401 4.33504 1.22296 5.43299 0.733774C6.53095 0.244591 7.68149 0 8.88461 0C10.0877 0 11.2383 0.244591 12.3362 0.733774C13.4342 1.22296 14.3807 1.88401 15.1758 2.71695C15.9709 3.54988 16.6019 4.54147 17.0688 5.69171C17.5358 6.84195 17.7692 8.04728 17.7692 9.30769C17.7692 11.2468 17.2476 13.0052 16.2043 14.5829L20.5331 19.1178C20.8444 19.4439 21 19.8405 21 20.3077Z" fill="#7627AC"/>
</svg>
